<svg xmlns="http://www.w3.org/2000/svg" style="display: none;">
<defs>
  <symbol id="buy" viewBox="0 0 125 147.31">
    <title>icono buy</title>
		<path d="M123.717,55.862c0.761,0,1.469-0.626,1.469-1.397v-2.782c0-0.764-0.801-1.463-1.562-1.463H1.373
			c-0.758,0-1.188,0.699-1.188,1.463v2.782c0,0.771,0.522,1.378,1.28,1.378c3.581,0.02,6.44,2.92,6.44,6.489
			c0,3.581-2.835,6.481-6.417,6.481c-0.758,0-1.304,0.626-1.304,1.395v4.166c0,0.772,0.522,1.385,1.28,1.385
			c3.581,0,6.44,2.916,6.44,6.489c0,3.575-2.835,6.476-6.417,6.476c-0.758,0-1.304,0.626-1.304,1.387v4.18
			c0,0.758,0.522,1.381,1.28,1.381c3.581,0,6.44,2.916,6.44,6.483s-2.835,6.486-6.417,6.486c-0.758,0-1.304,0.621-1.304,1.382v2.779
			c0,0.771,0.43,1.418,1.188,1.418h12.602l1.437,2.988c0.343,0.703,1.186,0.983,1.865,0.646c2.611-1.246,5.772-0.136,7.024,2.479
			c1.261,2.622,0.148,5.778-2.466,7.028c-0.346,0.161-0.599,0.444-0.72,0.799c-0.126,0.343-0.093,0.732,0.066,1.057l1.521,3.174
			c0.34,0.706,1.178,0.991,1.859,0.654c2.615-1.253,5.772-0.141,7.028,2.477c1.26,2.623,0.146,5.767-2.475,7.03
			c-0.687,0.341-0.991,1.164-0.645,1.854l1.013,2.123c0.23,0.497,0.733,0.782,1.247,0.782c0.206,0,0.407-0.031,0.596-0.125
			l68.789-32.965h23.49c0.78,0,1.581-0.646,1.581-1.418v-2.779c0-0.761-0.708-1.382-1.488-1.382c-3.564,0-6.514-2.902-6.514-6.486
			c0-3.567,2.973-6.483,6.537-6.483c0.78,0,1.465-0.612,1.465-1.381v-4.164c0-0.776-0.708-1.402-1.488-1.402
			c-3.564,0-6.514-2.9-6.514-6.476c0-3.573,2.973-6.489,6.537-6.489c0.78,0,1.465-0.612,1.465-1.385v-4.166
			c0-0.769-0.708-1.395-1.488-1.395c-3.564,0-6.467-2.9-6.467-6.481C117.23,58.763,120.133,55.862,123.717,55.862z M40.333,130.211
			l-8.17-15.991h27.813h7.925h7.509L40.333,130.211z M109.186,102.154c0,0.772-0.536,1.065-1.319,1.065H17.125
			c-0.774,0-0.939-0.293-0.939-1.065V62.344c0-0.772,0.165-1.124,0.939-1.124h90.741c0.783,0,1.319,0.352,1.319,1.124V102.154z"/>
		<polygon points="49.565,37.257 61.668,30.895 73.773,37.257 71.466,23.779 81.256,14.228 67.726,12.262 61.668,0
			55.615,12.262 42.085,14.228 51.87,23.779 	"/>
		<polygon points="21.969,33.509 28.118,30.276 34.267,33.509 33.088,26.66 38.062,21.812 31.194,20.813
			28.118,14.585 25.04,20.813 18.163,21.812 23.136,26.66 	"/>
		<polygon points="88.871,33.509 95.022,30.276 101.166,33.509 99.996,26.66 104.97,21.812 98.096,20.813
			95.022,14.585 91.941,20.813 85.07,21.812 90.047,26.66 	"/>
		<path d="M51.455,71.438c-0.503-0.62-1.195-1.214-2.065-1.579c-0.876-0.362-1.895-0.64-3.051-0.64h-5.153v26h4.796
			c4.638,0,7.204-2.196,7.204-6.908v-1.459c0-1.356-0.33-2.441-0.733-3.26c-0.412-0.82-1.115-1.436-1.997-1.851
			c0.898-0.558,1.642-1.175,2.041-1.846c0.396-0.67,0.689-1.658,0.689-2.966V75.97c0-0.876-0.245-1.694-0.486-2.455
			S51.963,72.064,51.455,71.438z M49.406,88.729c-0.03,0.374-0.104,0.764-0.233,1.179c-0.121,0.406-0.296,0.728-0.524,0.958
			c-0.223,0.233-0.536,0.208-0.945,0.353c-0.401,0.148-0.89,0.002-1.472,0.002h-2.046v-8h2.076c1.283,0,2.137,0.365,2.557,0.979
			c0.423,0.611,0.635,1.648,0.635,3.049C49.453,87.841,49.437,88.357,49.406,88.729z M48.769,79.262
			c-0.458,0.588-1.28,0.958-2.469,0.958h-2.115v-7h1.972c1.189,0,2.035,0.133,2.54,0.709c0.502,0.576,0.755,1.419,0.755,2.607
			C49.453,77.794,49.222,78.674,48.769,79.262z"/>
		<path d="M65.186,89.185c0,0.879-0.434,1.543-0.854,2.005c-0.421,0.453-1.084,0.684-1.776,0.684
			c-0.684,0-1.277-0.23-1.698-0.684c-0.428-0.462-0.673-1.126-0.673-2.005V69.22h-4v20.319c0,1.683,0.712,3.116,1.89,4.292
			c1.172,1.176,2.651,1.766,4.31,1.766c1.665,0,2.973-0.59,4.15-1.766c1.176-1.176,1.649-2.609,1.649-4.292V69.22h-3V89.185z"/>
		<polygon points="77.318,80.22 77.247,80.22 74.256,69.22 70.321,69.22 75.186,84.411 75.186,95.22 79.186,95.22
			79.186,84.411 84.247,69.22 80.312,69.22 	"/>
	</symbol>

	<symbol id="sold-out" viewBox="0 0 125 147.31">
			<title>icono sold</title>
			<path d="M123.739,55.965c0.759,0,1.446-0.626,1.446-1.398v-2.782c0-0.762-0.756-1.564-1.515-1.564H1.438
				c-0.759,0-1.252,0.803-1.252,1.564v2.782c0,0.772,0.556,1.379,1.314,1.379c3.58,0.02,6.456,2.922,6.456,6.487
				c0,3.582-2.86,6.481-6.44,6.481c-0.759,0-1.33,0.625-1.33,1.395v4.168c0,0.77,0.556,1.382,1.314,1.382
				c3.58,0,6.456,2.915,6.456,6.489c0,3.572-2.86,6.476-6.44,6.476c-0.759,0-1.33,0.628-1.33,1.385v4.181
				c0,0.755,0.556,1.381,1.314,1.381c3.58,0,6.456,2.915,6.456,6.481c0,3.565-2.86,6.485-6.44,6.485c-0.759,0-1.33,0.619-1.33,1.383
				v2.777c0,0.772,0.493,1.323,1.252,1.323h12.598l1.437,3.038c0.344,0.7,1.185,1.003,1.866,0.667
				c2.611-1.246,5.771-0.124,7.024,2.491c1.26,2.62,0.147,5.782-2.466,7.034c-0.349,0.162-0.598,0.445-0.721,0.798
				c-0.125,0.341-0.093,0.735,0.068,1.059l1.52,3.175c0.34,0.705,1.176,0.99,1.858,0.652c2.613-1.248,5.771-0.14,7.027,2.479
				c1.26,2.622,0.147,5.769-2.474,7.028c-0.686,0.34-0.991,1.166-0.645,1.854l1.015,2.121c0.229,0.498,0.731,0.783,1.245,0.783
				c0.205,0,0.405-0.076,0.594-0.168l68.782-33.013h23.488c0.775,0,1.531-0.551,1.531-1.323v-2.777c0-0.764-0.688-1.383-1.464-1.383
				c-3.564,0-6.501-2.9-6.501-6.485c0-3.566,2.953-6.481,6.519-6.481c0.775,0,1.446-0.611,1.446-1.381v-4.164
				c0-0.773-0.688-1.401-1.464-1.401c-3.564,0-6.501-2.903-6.501-6.476c0-3.574,2.953-6.489,6.519-6.489
				c0.775,0,1.446-0.612,1.446-1.382v-4.168c0-0.77-0.688-1.395-1.464-1.395c-3.564,0-6.467-2.899-6.467-6.481
				C117.255,58.867,120.157,55.965,123.739,55.965z M40.392,130.211l-8.165-15.991h27.808h7.919h7.51L40.392,130.211z
				 M109.186,102.251c0,0.772-0.484,0.969-1.268,0.969H17.186c-0.774,0-1-0.196-1-0.969V62.445c0-0.771,0.226-1.226,1-1.226h90.732
				c0.783,0,1.268,0.454,1.268,1.226V102.251z"/>
			<polygon points="49.622,37.36 61.721,31.002 73.83,37.36 71.52,23.887 81.31,14.335 67.781,12.368 61.721,0.109
				55.674,12.368 42.144,14.335 51.926,23.887 	"/>
			<polygon points="22.03,33.613 28.18,30.385 34.327,33.613 33.146,26.768 38.121,21.92 31.252,20.919 28.18,14.693
				25.1,20.919 18.226,21.92 23.197,26.768 	"/>
			<polygon points="88.925,33.613 95.074,30.385 101.218,33.613 100.047,26.768 105.018,21.92 98.148,20.919
				95.074,14.693 91.992,20.919 85.122,21.92 90.1,26.768 	"/>
			<path d="M33.328,71.571c-0.68-0.517-1.442-0.775-2.274-0.775c-1.447,0-2.559,0.599-3.331,1.796
				c-0.776,1.199-1.159,2.723-1.159,4.569c0,1.539,0.207,2.782,0.615,3.721c0.41,0.941,1.152,1.697,2.229,2.26l1.869,0.974
				c0.461,0.233,0.788,0.458,0.975,0.677c0.197,0.218,0.333,0.536,0.417,0.949c0.081,0.414,0.125,1.048,0.125,1.898
				c0,0.615-0.016,1.104-0.049,1.458c-0.032,0.356-0.114,0.705-0.231,1.045c-0.125,0.34-0.313,0.584-0.577,0.734
				c-0.267,0.146-0.606,0.224-1.037,0.224c-0.62,0-1.012-0.229-1.325-0.686c-0.308-0.458-0.392-1.023-0.392-1.692V87.22h-3v1.695
				c0,1.573,0.549,2.887,1.406,3.942c0.856,1.049,1.978,1.575,3.25,1.575c3.008,0,4.545-2.275,4.545-6.825
				c0-1.819-0.171-3.201-0.538-4.147c-0.366-0.946-1.091-1.684-2.187-2.216l-2.001-1.023c-0.653-0.326-1.061-0.687-1.238-1.077
				c-0.168-0.385-0.252-1.059-0.252-2.013c0-2.013,0.594-3.017,1.782-3.017c0.626,0,1.283,0.264,1.586,0.789
				c0.304,0.526,0.647,1.202,0.647,2.036v0.28h2v-1.174c0-0.873-0.063-1.709-0.417-2.506C34.412,72.741,34.008,72.086,33.328,71.571z"
				/>
			<path d="M44.594,72.202c-0.422-0.46-0.893-0.808-1.407-1.047c-0.514-0.237-1.042-0.359-1.586-0.359
				s-1.071,0.122-1.588,0.359c-0.514,0.239-0.982,0.587-1.403,1.047c-0.422,0.455-0.776,1.054-1.031,1.793
				c-0.256,0.736-0.394,1.566-0.394,2.478v12.282c0,0.914,0.138,1.742,0.394,2.478c0.255,0.74,0.602,1.341,1.024,1.799
				c0.421,0.453,0.893,0.805,1.407,1.041c0.517,0.243,1.046,0.36,1.59,0.36s1.073-0.117,1.586-0.36
				c0.515-0.236,0.985-0.588,1.407-1.041c0.421-0.458,0.853-1.059,1.107-1.799c0.258-0.735,0.484-1.563,0.484-2.478V76.473
				c0-0.911-0.226-1.741-0.484-2.478C45.447,73.256,45.016,72.657,44.594,72.202z M43.186,88.755c0,0.754-0.072,1.336-0.409,1.738
				c-0.341,0.405-0.715,0.607-1.224,0.607c-0.51,0-0.732-0.202-1.064-0.607c-0.338-0.402-0.303-0.984-0.303-1.738V76.473
				c0-0.762-0.01-1.35,0.327-1.754c0.332-0.4,0.666-0.604,1.177-0.604c0.509,0,0.791,0.207,1.131,0.615
				c0.336,0.41,0.365,0.989,0.365,1.743V88.755z"/>
			<polygon points="51.186,71.22 48.186,71.22 48.186,94.22 56.186,94.22 56.186,91.22 51.186,91.22 	"/>
			<path d="M61.677,71.22h-3.492v23h3.255c1.567,0,2.715-0.516,3.545-1.576c0.829-1.061,1.2-2.641,1.2-4.764V77.002
				c0-1.892-0.357-3.254-1.152-4.312C64.243,71.635,63.148,71.22,61.677,71.22z M64.186,88.194c0,1.012-0.428,1.809-0.736,2.273
				c-0.313,0.459-1.108,0.752-1.832,0.752h-1.432v-17h1.432c0.745,0,1.539,0.188,1.841,0.664c0.305,0.482,0.727,1.15,0.727,2.118
				V88.194z"/>
			<path d="M80.727,72.202c-0.424-0.46-0.892-0.808-1.403-1.047c-0.52-0.237-1.047-0.359-1.588-0.359
				c-0.544,0-1.071,0.122-1.59,0.359c-0.511,0.239-0.982,0.587-1.404,1.047c-0.42,0.455-0.835,1.054-1.097,1.793
				c-0.254,0.736-0.459,1.566-0.459,2.478v12.282c0,0.914,0.205,1.742,0.459,2.478c0.262,0.74,0.638,1.341,1.058,1.799
				c0.422,0.453,0.913,0.805,1.424,1.041c0.519,0.243,1.056,0.36,1.6,0.36c0.541,0,1.072-0.117,1.592-0.36
				c0.512-0.236,0.983-0.588,1.407-1.041c0.423-0.458,0.789-1.059,1.042-1.799c0.26-0.735,0.419-1.563,0.419-2.478V76.473
				c0-0.911-0.158-1.741-0.418-2.478C81.516,73.256,81.149,72.657,80.727,72.202z M79.186,88.755c0,0.754-0.004,1.336-0.344,1.738
				c-0.335,0.405-0.68,0.607-1.188,0.607s-0.782-0.202-1.116-0.607c-0.335-0.402-0.352-0.984-0.352-1.738V76.473
				c0-0.762,0.059-1.35,0.393-1.754c0.335-0.4,0.704-0.604,1.213-0.604s0.744,0.207,1.078,0.615c0.34,0.41,0.316,0.989,0.316,1.743
				V88.755z"/>
			<path d="M90.186,88.689c0,0.789-0.096,1.385-0.395,1.796c-0.295,0.408-0.659,0.615-1.146,0.615
				s-0.796-0.207-1.091-0.615c-0.301-0.411-0.369-1.007-0.369-1.796V71.22h-3v17.788c0,1.512,0.536,2.794,1.363,3.85
				c0.83,1.049,1.892,1.575,3.061,1.575c1.171,0,2.34-0.526,3.168-1.575c0.826-1.056,1.408-2.338,1.408-3.85V71.22h-3V88.689z"/>
			<polygon points="94.186,74.22 97.186,74.22 97.186,94.22 100.186,94.22 100.186,74.22 103.186,74.22 103.186,71.22
				94.186,71.22 	"/>
			</symbol>

</defs>
</svg>
