<?xml version="1.0" encoding="utf-8"?>
<!-- Generator: Adobe Illustrator 16.0.0, SVG Export Plug-In . SVG Version: 6.00 Build 0)  -->
<!DOCTYPE svg PUBLIC "-//W3C//DTD SVG 1.1//EN" "http://www.w3.org/Graphics/SVG/1.1/DTD/svg11.dtd">
<svg version="1.1" id="Layer_1" xmlns="http://www.w3.org/2000/svg" xmlns:xlink="http://www.w3.org/1999/xlink" x="0px" y="0px"
	 width="150.402px" height="20.667px" viewBox="0 0 150.402 20.667" enable-background="new 0 0 150.402 20.667"
	 xml:space="preserve">
<polygon fill="#FFFFFF" points="2.402,6.083 2.402,13.387 8.75,17.085 15.024,13.417 15.024,6.083 8.75,2.496 "/>
<polygon fill="#BCD636" points="2.402,13.387 8.713,10.554 15.024,13.899 15.024,6.083 8.75,2.496 2.402,6.083 "/>
<g>
	<g>
		<path fill="#1B2024" d="M28.104,3.409l5.583,8.975h0.038V3.409h2.754v13.377h-2.941L27.973,7.83h-0.038v8.957h-2.754V3.409H28.104
			z"/>
		<path fill="#1B2024" d="M38.37,7.372c0.3-0.856,0.731-1.602,1.293-2.239c0.562-0.637,1.251-1.136,2.069-1.498
			c0.817-0.362,1.74-0.544,2.764-0.544c1.037,0,1.961,0.182,2.773,0.544c0.812,0.362,1.499,0.861,2.061,1.498
			c0.562,0.637,0.994,1.383,1.292,2.239c0.3,0.855,0.449,1.783,0.449,2.782c0,0.975-0.149,1.883-0.449,2.727
			c-0.299,0.843-0.729,1.576-1.292,2.201c-0.562,0.625-1.249,1.114-2.061,1.471c-0.812,0.354-1.737,0.535-2.773,0.535
			c-1.023,0-1.945-0.181-2.764-0.535c-0.817-0.355-1.507-0.846-2.069-1.471c-0.562-0.625-0.994-1.358-1.293-2.201
			c-0.299-0.844-0.45-1.752-0.45-2.727C37.92,9.155,38.071,8.227,38.37,7.372z"/>
		<path fill="#1B2024" d="M58.285,3.409c0.863,0,1.664,0.138,2.408,0.413c0.742,0.275,1.386,0.687,1.929,1.236
			c0.543,0.55,0.968,1.236,1.274,2.061c0.306,0.825,0.459,1.793,0.459,2.904c0,0.973-0.125,1.874-0.375,2.698
			c-0.25,0.823-0.628,1.536-1.134,2.136c-0.507,0.6-1.138,1.071-1.893,1.414c-0.756,0.346-1.646,0.516-2.67,0.516h-5.771V3.409
			H58.285z M58.08,14.313c0.425,0,0.836-0.067,1.236-0.207c0.399-0.137,0.756-0.364,1.067-0.683
			c0.312-0.319,0.562-0.734,0.749-1.246c0.188-0.514,0.282-1.137,0.282-1.875c0-0.674-0.065-1.283-0.198-1.826
			c-0.13-0.543-0.346-1.008-0.646-1.396c-0.3-0.387-0.696-0.684-1.189-0.89s-1.103-0.309-1.826-0.309h-2.099v8.431L58.08,14.313
			L58.08,14.313z"/>
		<path fill="#1B2024" d="M75.84,3.409v2.474h-7.062v2.865h6.481v2.287h-6.481v3.278h7.213v2.474H65.836V3.409H75.84z"/>
		<path fill="#1B2024" d="M85.995,6.978c-0.176-0.281-0.395-0.527-0.655-0.74c-0.263-0.212-0.56-0.378-0.891-0.496
			c-0.332-0.119-0.678-0.178-1.04-0.178c-0.662,0-1.223,0.127-1.686,0.383c-0.462,0.256-0.837,0.6-1.124,1.031
			s-0.497,0.922-0.628,1.47c-0.133,0.55-0.197,1.119-0.197,1.705c0,0.563,0.064,1.109,0.197,1.64
			c0.131,0.53,0.341,1.009,0.628,1.435c0.287,0.424,0.662,0.765,1.124,1.021c0.463,0.256,1.022,0.385,1.686,0.385
			c0.898,0,1.604-0.274,2.107-0.824c0.507-0.551,0.814-1.273,0.929-2.174h2.847c-0.074,0.837-0.269,1.594-0.581,2.268
			c-0.312,0.674-0.725,1.249-1.234,1.725c-0.514,0.475-1.112,0.836-1.801,1.086c-0.687,0.25-1.44,0.375-2.267,0.375
			c-1.024,0-1.945-0.18-2.764-0.534c-0.817-0.355-1.508-0.847-2.07-1.47c-0.561-0.625-0.993-1.359-1.292-2.203
			s-0.45-1.75-0.45-2.726c0-0.999,0.151-1.926,0.45-2.782s0.731-1.602,1.292-2.239c0.562-0.637,1.253-1.136,2.07-1.498
			c0.817-0.362,1.738-0.544,2.764-0.544c0.736,0,1.433,0.106,2.089,0.318c0.656,0.212,1.243,0.522,1.762,0.928
			c0.52,0.406,0.946,0.908,1.283,1.508c0.338,0.6,0.549,1.287,0.638,2.061h-2.849C86.283,7.568,86.169,7.26,85.995,6.978z"/>
		<path fill="#1B2024" d="M104.484,3.409l5.583,8.975h0.037V3.409h2.755v13.377h-2.941l-5.564-8.957h-0.037v8.957h-2.754V3.409
			H104.484z"/>
		<path fill="#1B2024" d="M124.287,3.409v2.474h-6.463v3.091h5.602v2.286h-5.602v5.526h-2.942V3.409H124.287z"/>
	</g>
	<circle fill="#1B2024" cx="95.417" cy="10.088" r="4.648"/>
</g>
<rect x="128.501" y="3.091" fill="#1B2024" width="21.9" height="14.618"/>
<g>
	<path fill="#F2F2F2" d="M133.807,14.53h-1.065l2.627-8.523h1.125l2.642,8.523h-1.17l-0.582-1.872h-2.996L133.807,14.53z
		 M134.648,11.806h2.486l-1.026-3.234l-0.238-0.865l-0.216,0.865L134.648,11.806z"/>
	<path fill="#F2F2F2" d="M141.239,10.906v3.624h-1.109V6.006h2.276c0.742,0,1.289,0.076,1.641,0.228
		c0.352,0.152,0.623,0.382,0.814,0.689c0.191,0.307,0.288,0.639,0.288,0.993c0,0.33-0.063,0.66-0.192,0.994
		c-0.127,0.333-0.304,0.629-0.527,0.891c-0.226,0.261-0.55,0.509-0.974,0.744l2.465,3.986h-1.32l-2.259-3.624L141.239,10.906
		L141.239,10.906z M141.239,10.054h1.548c0.35-0.19,0.608-0.385,0.778-0.583c0.17-0.198,0.299-0.409,0.387-0.632
		c0.087-0.224,0.132-0.448,0.132-0.671c0-0.4-0.146-0.718-0.437-0.955c-0.29-0.236-0.817-0.354-1.581-0.354h-0.827V10.054
		L141.239,10.054z"/>
</g>
<polygon fill="none" stroke="#1B2024" stroke-width="2" stroke-miterlimit="10" points="2.402,6.083 8.75,2.496 15.024,6.083 
	15.024,13.417 8.75,17.085 2.402,13.387 "/>
</svg>
