<?xml version="1.0" encoding="utf-8"?>
<!-- Generator: Adobe Illustrator 16.0.0, SVG Export Plug-In . SVG Version: 6.00 Build 0)  -->
<!DOCTYPE svg PUBLIC "-//W3C//DTD SVG 1.1//EN" "http://www.w3.org/Graphics/SVG/1.1/DTD/svg11.dtd">
<svg version="1.1" id="Layer_1" xmlns="http://www.w3.org/2000/svg" xmlns:xlink="http://www.w3.org/1999/xlink" x="0px" y="0px"
	 width="384px" height="456.869px" viewBox="0 0 384 456.869" enable-background="new 0 0 384 456.869" xml:space="preserve">
<path fill="#FFD000" d="M129.715,50.61c0,3.59-2.912,6.502-6.504,6.502c-3.59,0-6.5-2.912-6.5-6.502c0-3.591,2.91-6.502,6.5-6.502
	C126.803,44.108,129.715,47.019,129.715,50.61"/>
<rect x="244.824" y="248.132" fill="#FFD000" width="1.002" height="196.85"/>
<path fill="#FFD000" d="M251.828,450.921c0,3.59-2.912,6.502-6.502,6.502c-3.592,0-6.502-2.912-6.502-6.502s2.91-6.502,6.502-6.502
	C248.916,444.419,251.828,447.332,251.828,450.921"/>
<path fill="#FFD000" d="M56.873,124.905L0.32,93.828V31.632l0.26-0.142L56.873,0.555l56.553,31.077v62.196l-0.26,0.143
	L56.873,124.905z M1.322,93.236l55.551,30.527l55.553-30.527V32.224L56.873,1.697L1.322,32.224V93.236z"/>
<path fill="#FFD000" d="M112.926,187.072l-56.553-31.077V93.797l0.26-0.142l56.293-30.934l56.553,31.076v62.197l-0.26,0.142
	L112.926,187.072z M57.375,155.402l55.551,30.528l55.553-30.528V94.39l-55.553-30.527L57.375,94.39V155.402z"/>
<path fill="#ADD136" d="M344.039,89.875l-35.061-51.607h70.119L344.039,89.875z M316.539,42.272l27.5,40.479l27.498-40.479H316.539z
	"/>
<path fill="#ADD136" d="M347.541,153.989l-35.059-51.607H382.6L347.541,153.989z M320.043,106.386l27.498,40.479l27.5-40.479
	H320.043z"/>
<path fill="#ADD136" d="M349.262,214.208l-35.059-51.607h70.117L349.262,214.208z M321.762,166.604l27.5,40.478l27.5-40.478H321.762
	z"/>
<path fill="#ADD136" d="M347.26,273.875l-35.059-51.608h70.117L347.26,273.875z M319.76,226.27l27.5,40.478l27.5-40.478H319.76z"/>
<path fill="#DAD9D9" d="M280.93,370.798c0,7.004-5.676,12.68-12.678,12.68s-12.678-5.676-12.678-12.68
	c0-7.002,5.676-12.678,12.678-12.678S280.93,363.796,280.93,370.798"/>
<polygon fill="#ADD136" points="127.303,236.257 112.539,236.257 112.539,221.493 94.523,221.493 94.523,236.257 79.76,236.257 
	79.76,254.273 94.523,254.273 94.523,269.037 112.539,269.037 112.539,254.273 127.303,254.273 "/>
<g>
	<polygon fill="#F2F2F2" points="135.049,95.593 229.195,42.383 322.271,95.593 322.271,204.407 229.195,258.814 135.049,203.934 	
		"/>
	<polygon fill="#BCD636" points="136.307,115.262 160.734,100.301 160.637,136.753 176.279,127.423 176.279,114.348 197.039,102.67 
		197.039,84.167 211.602,75.936 211.67,108.846 229.385,98.141 229.525,84.88 244.041,92.814 244.041,71.865 257.049,79.301 
		257.104,100.473 269.312,106.862 269.482,76.886 282.346,84.172 282.412,126.575 297.619,135.905 297.619,106.223 320.943,119.979 
		321.012,204.221 229.455,150.599 136.262,203.726 	"/>
	<g>
		<g>
			<polygon fill="#F2F2F2" points="214.32,179.513 229.18,188.796 229.18,57.78 223.979,61.247 			"/>
			<path fill="#1B2024" d="M229.799,189.913l-16.127-10.075l0.031-0.375l9.684-118.564l6.412-4.276V189.913z M214.969,179.187
				l13.592,8.492V58.937l-3.988,2.66L214.969,179.187z"/>
		</g>
		<g>
			<polygon fill="#F2F2F2" points="244.041,179.513 229.18,188.796 229.18,57.78 234.383,61.247 			"/>
			<path fill="#1B2024" d="M228.561,189.913V56.622l6.414,4.276l0.023,0.298l9.689,118.641L228.561,189.913z M229.799,58.937
				v128.742l13.594-8.492l-9.604-117.591L229.799,58.937z"/>
		</g>
		<g>
			<polygon fill="#F2F2F2" points="229.193,63.73 229.037,53.981 223.979,61.247 			"/>
			<path fill="#1B2024" d="M229.193,64.349c-0.092,0-0.182-0.02-0.266-0.06l-5.215-2.483c-0.166-0.078-0.287-0.224-0.332-0.4
				c-0.047-0.176-0.014-0.363,0.09-0.513l5.059-7.266c0.152-0.22,0.434-0.315,0.688-0.239c0.258,0.079,0.436,0.314,0.439,0.583
				l0.156,9.749c0.004,0.214-0.104,0.415-0.285,0.53C229.426,64.316,229.309,64.349,229.193,64.349z M224.904,61.003l3.652,1.739
				l-0.107-6.831L224.904,61.003z"/>
		</g>
		<g>
			<polygon fill="#F2F2F2" points="229.193,63.73 229.104,53.996 234.383,61.086 			"/>
			<path fill="#1B2024" d="M229.193,64.349c-0.111,0-0.223-0.029-0.322-0.089c-0.182-0.111-0.295-0.309-0.297-0.523l-0.092-9.734
				c-0.002-0.268,0.17-0.507,0.422-0.592c0.256-0.085,0.535,0.001,0.695,0.217l5.279,7.089c0.109,0.146,0.146,0.333,0.105,0.511
				c-0.043,0.178-0.158,0.329-0.322,0.412l-5.188,2.644C229.385,64.327,229.289,64.349,229.193,64.349z M229.74,55.89l0.064,6.835
				l3.643-1.857L229.74,55.89z"/>
		</g>
	</g>
	<rect x="190.111" y="115.662" fill="#1B2024" width="78.768" height="16.718"/>
	<g>
		<g>
			<path fill="#1B2024" d="M160.984,91.517l8.246,13.254h0.055V91.517h4.068v19.758h-4.346l-8.217-13.228h-0.057v13.228h-4.066
				V91.517H160.984z"/>
			<path fill="#1B2024" d="M176.148,97.369c0.441-1.264,1.08-2.366,1.908-3.307c0.832-0.941,1.85-1.678,3.057-2.214
				c1.209-0.535,2.57-0.803,4.082-0.803c1.531,0,2.896,0.268,4.096,0.803c1.199,0.536,2.213,1.272,3.043,2.214
				c0.832,0.94,1.469,2.043,1.912,3.307c0.441,1.263,0.662,2.633,0.662,4.108c0,1.44-0.221,2.782-0.662,4.027
				c-0.443,1.245-1.08,2.33-1.912,3.251c-0.83,0.922-1.844,1.647-3.043,2.172c-1.199,0.526-2.564,0.789-4.096,0.789
				c-1.512,0-2.873-0.262-4.082-0.789c-1.207-0.525-2.225-1.25-3.057-2.172c-0.828-0.921-1.467-2.006-1.908-3.251
				c-0.443-1.245-0.664-2.587-0.664-4.027C175.484,100.002,175.705,98.632,176.148,97.369z"/>
			<path fill="#1B2024" d="M205.562,91.517c1.273,0,2.457,0.203,3.555,0.608c1.098,0.406,2.047,1.015,2.852,1.827
				c0.801,0.811,1.43,1.826,1.883,3.043c0.449,1.218,0.678,2.648,0.678,4.29c0,1.438-0.186,2.767-0.555,3.984
				c-0.369,1.218-0.928,2.27-1.674,3.155c-0.748,0.885-1.678,1.582-2.795,2.089c-1.115,0.508-2.432,0.762-3.943,0.762h-8.523V91.517
				H205.562z M205.258,107.621c0.627,0,1.236-0.101,1.826-0.304c0.592-0.203,1.117-0.54,1.58-1.009
				c0.459-0.472,0.83-1.085,1.104-1.841c0.277-0.756,0.416-1.678,0.416-2.767c0-0.997-0.096-1.896-0.291-2.697
				c-0.193-0.803-0.51-1.49-0.953-2.062c-0.443-0.572-1.027-1.01-1.758-1.314c-0.73-0.304-1.627-0.456-2.697-0.456h-3.1v12.452
				H205.258z"/>
			<path fill="#1B2024" d="M231.49,91.517v3.653h-10.432v4.232h9.574v3.376h-9.574v4.843h10.654v3.653h-14.998V91.517H231.49z"/>
			<path fill="#1B2024" d="M246.49,96.788c-0.262-0.416-0.584-0.779-0.969-1.093c-0.387-0.314-0.826-0.559-1.316-0.734
				c-0.488-0.175-1-0.263-1.535-0.263c-0.979,0-1.809,0.19-2.488,0.567c-0.684,0.379-1.24,0.886-1.664,1.522
				c-0.42,0.637-0.732,1.361-0.926,2.172c-0.193,0.812-0.289,1.651-0.289,2.518c0,0.831,0.096,1.638,0.289,2.421
				c0.193,0.784,0.506,1.49,0.926,2.118c0.424,0.626,0.98,1.129,1.664,1.507c0.68,0.379,1.51,0.568,2.488,0.568
				c1.326,0,2.365-0.406,3.111-1.218c0.748-0.811,1.205-1.882,1.373-3.21h4.205c-0.111,1.235-0.396,2.353-0.859,3.349
				c-0.459,0.996-1.068,1.844-1.824,2.546c-0.758,0.701-1.645,1.236-2.658,1.604c-1.016,0.369-2.129,0.553-3.348,0.553
				c-1.512,0-2.873-0.262-4.082-0.789c-1.207-0.525-2.227-1.25-3.057-2.172c-0.832-0.921-1.467-2.006-1.91-3.251
				c-0.441-1.245-0.664-2.587-0.664-4.027c0-1.475,0.223-2.846,0.664-4.108c0.443-1.264,1.078-2.366,1.91-3.307
				c0.83-0.941,1.85-1.678,3.057-2.214c1.209-0.535,2.57-0.803,4.082-0.803c1.088,0,2.117,0.157,3.084,0.471
				c0.973,0.313,1.838,0.77,2.602,1.369c0.768,0.6,1.398,1.342,1.896,2.228c0.5,0.886,0.811,1.899,0.939,3.045h-4.205
				C246.914,97.659,246.744,97.203,246.49,96.788z"/>
			<path fill="#1B2024" d="M273.799,91.517l8.246,13.254h0.053V91.517h4.066v19.758h-4.342l-8.219-13.228h-0.057v13.228h-4.064
				V91.517H273.799z"/>
			<path fill="#1B2024" d="M303.049,91.517v3.653H293.5v4.565h8.271v3.376H293.5v8.164h-4.348V91.517H303.049z"/>
		</g>
		<circle fill="#1B2024" cx="260.404" cy="101.381" r="6.865"/>
	</g>
	<g>
		<path fill="#F2F2F2" d="M196.182,128.746h-1.219l3.005-9.75h1.287l3.021,9.75h-1.338l-0.666-2.142h-3.428L196.182,128.746z
			 M197.144,125.63h2.845l-1.175-3.7l-0.272-0.99l-0.247,0.99L197.144,125.63z"/>
		<path fill="#F2F2F2" d="M204.682,124.6v4.146h-1.27v-9.75h2.604c0.85,0,1.475,0.087,1.876,0.26
			c0.402,0.174,0.713,0.436,0.933,0.788s0.329,0.73,0.329,1.136c0,0.376-0.073,0.755-0.22,1.136
			c-0.146,0.381-0.348,0.721-0.604,1.02s-0.628,0.583-1.112,0.85l2.819,4.56h-1.512l-2.581-4.146H204.682z M204.682,123.626h1.771
			c0.398-0.218,0.695-0.441,0.89-0.667c0.194-0.226,0.342-0.467,0.442-0.723c0.101-0.256,0.15-0.512,0.15-0.768
			c0-0.457-0.166-0.821-0.498-1.092c-0.333-0.271-0.936-0.406-1.81-0.406h-0.946V123.626z"/>
		<path fill="#F2F2F2" d="M217.032,128.739c-0.688,0.201-1.317,0.302-1.891,0.302c-0.812,0-1.536-0.201-2.171-0.603
			c-0.635-0.402-1.132-1.008-1.492-1.819s-0.54-1.727-0.54-2.749c0-1.009,0.176-1.916,0.527-2.72
			c0.353-0.804,0.849-1.414,1.489-1.828s1.345-0.622,2.11-0.622c0.578,0,1.231,0.135,1.96,0.406v1.156
			c-0.674-0.392-1.344-0.588-2.01-0.588c-0.503,0-0.962,0.172-1.379,0.516s-0.752,0.848-1.005,1.512
			c-0.254,0.664-0.38,1.39-0.38,2.178c0,1.056,0.24,2.018,0.722,2.885c0.481,0.868,1.242,1.302,2.28,1.302
			c0.135,0,0.304-0.011,0.509-0.032v-3.141h-0.974v-0.974h2.243V128.739z"/>
		<path fill="#F2F2F2" d="M224.457,127.671v1.074h-5.264v-9.75h5.17v0.98h-3.901v3.311h3.512v0.974h-3.512v3.411H224.457z"/>
		<path fill="#F2F2F2" d="M227.598,128.746h-1.168v-9.75h1.143l3.442,6.489l0.377,0.967h0.032l-0.032-0.967v-6.489h1.169v9.75
			h-1.169l-3.349-6.379l-0.471-1.024l0.025,1.011V128.746z"/>
		<path fill="#F2F2F2" d="M236.581,128.746v-8.675h-2.921v-1.074h7.111v1.074h-2.922v8.675H236.581z"/>
		<path fill="#F2F2F2" d="M242.159,128.746v-0.974h2.143v-7.802h-2.143v-0.974h5.554v0.974h-2.143v7.802h2.143v0.974H242.159z"/>
		<path fill="#F2F2F2" d="M250.76,128.746h-1.168v-9.75h1.143l3.442,6.489l0.377,0.967h0.032l-0.032-0.967v-6.489h1.169v9.75h-1.169
			l-3.349-6.379l-0.471-1.024l0.025,1.011V128.746z"/>
		<path fill="#F2F2F2" d="M257.946,128.746h-1.219l3.005-9.75h1.287l3.021,9.75h-1.338l-0.666-2.142h-3.428L257.946,128.746z
			 M258.908,125.63h2.845l-1.175-3.7l-0.272-0.99l-0.247,0.99L258.908,125.63z"/>
	</g>
	<g>
		<path fill="#F2F2F2" d="M300.209,197.752c0,0,5.832,0.086,8.475,4.717l3.656-2.074c0,0-4.291-5.375-10.141-5.375"/>
		<path fill="#1B2024" d="M308.453,203.313l-0.309-0.537c-2.438-4.276-7.889-4.404-7.943-4.405l0.016-1.238
			c0.244,0.003,5.783,0.137,8.682,4.503l2.469-1.402c-1.25-1.325-4.779-4.595-9.168-4.595V194.4c6.08,0,10.441,5.379,10.623,5.608
			l0.451,0.566L308.453,203.313z"/>
	</g>
	<g>
		<g>
			<g>
				<path fill="#F2F2F2" d="M242.119,206.151c0,0,8.51,10.91,6.508,21.723l15.375,1.282c0,0,1.512-17.716,14.855-23.306"/>
				<path fill="#1B2024" d="M264.002,229.777c-0.018,0-0.035-0.002-0.051-0.004l-15.377-1.283c-0.176-0.014-0.334-0.1-0.439-0.241
					c-0.107-0.139-0.15-0.316-0.117-0.489c1.928-10.405-6.303-21.122-6.387-21.229l0.977-0.76c0.348,0.444,8.32,10.816,6.738,21.541
					l14.107,1.178c0.18-1.404,0.762-5.022,2.396-9.12c2.74-6.867,7.156-11.739,12.768-14.089l0.48,1.142
					c-12.836,5.375-14.463,22.613-14.479,22.788C264.592,229.533,264.318,229.777,264.002,229.777z"/>
			</g>
			<g>
				<path fill="#F2F2F2" d="M300.654,199.549c0,0-1.535,8.041-2.637,9.742l-5.961,3.498l-10.289-6.6"/>
				<path fill="#1B2024" d="M292.041,213.515l-10.607-6.806l0.67-1.042l9.967,6.394l5.498-3.226c0.85-1.519,2.07-7.26,2.48-9.403
					l1.217,0.232c-0.162,0.836-1.594,8.21-2.729,9.962l-0.08,0.123L292.041,213.515z"/>
			</g>
			<g>
				<path fill="#F2F2F2" d="M264.002,229.156l2.742-1.583c0,0-0.059-12.695,15.057-22.004l-3.629,0.585
					C278.172,206.154,266.002,211.079,264.002,229.156z"/>
				<path fill="#1B2024" d="M264.002,229.777c-0.119,0-0.236-0.034-0.34-0.102c-0.193-0.128-0.301-0.355-0.275-0.586
					c1.051-9.509,4.93-15.384,8-18.638c3.348-3.548,6.424-4.819,6.555-4.872c0.043-0.018,0.088-0.03,0.135-0.037l3.627-0.586
					c0.295-0.051,0.576,0.12,0.678,0.396c0.104,0.277-0.004,0.588-0.254,0.743c-14.65,9.022-14.764,21.349-14.764,21.474
					c0.002,0.223-0.117,0.428-0.309,0.539l-2.744,1.584C264.215,229.748,264.107,229.777,264.002,229.777z M278.346,206.754
					c-0.881,0.393-11.332,5.385-13.574,21.243l1.361-0.787c0.104-2.079,1.209-12.211,12.936-20.574L278.346,206.754z"/>
			</g>
			<g>
				<path fill="#F2F2F2" d="M292.057,212.789l-15.834-3.06c2.311-2.257,5.014-3.878,5.014-3.878L292.057,212.789z"/>
				<path fill="#1B2024" d="M292.057,213.408c-0.039,0-0.078-0.004-0.119-0.012l-15.832-3.06c-0.227-0.043-0.412-0.208-0.477-0.429
					c-0.066-0.222-0.004-0.461,0.16-0.621c2.338-2.283,5.018-3.899,5.129-3.966c0.203-0.121,0.455-0.117,0.654,0.009l10.818,6.937
					c0.25,0.16,0.352,0.476,0.24,0.751C292.537,213.256,292.305,213.408,292.057,213.408z M277.543,209.354l11.463,2.214
					l-7.773-4.984C280.586,206.999,279.059,208.019,277.543,209.354z"/>
			</g>
			<g>
				<g>
					<path fill="#F2F2F2" d="M228.396,198.221c0,0-6.453,3.797-7.055,7.401l-3.297-0.832c0,0,3.705-9.257,8.645-9.257"/>
					<path fill="#1B2024" d="M221.842,206.387l-4.635-1.169l0.262-0.658c0.158-0.394,3.924-9.646,9.221-9.646v1.238
						c-3.74,0-6.857,6.168-7.787,8.216l1.99,0.501c1.188-3.614,6.932-7.03,7.191-7.182l0.627,1.067
						c-1.727,1.017-6.305,4.25-6.758,6.969L221.842,206.387z"/>
				</g>
				<g>
					<path fill="#F2F2F2" d="M292.027,175.143c11.414,1.801,14.461,8.726,14.461,8.726v11.227
						c-7.953,7.469-16.633,13.372-47.41,12.791c-30.781-0.581-37.42-11.126-37.42-11.126v-11.012c0,0,2.402-5.805,13.215-8.708"/>
					<path fill="#1B2024" d="M263.215,208.546c-1.338,0-2.719-0.014-4.148-0.04c-30.762-0.582-37.654-10.974-37.934-11.416
						l-0.096-0.15v-11.314l0.047-0.113c0.104-0.249,2.646-6.122,13.627-9.069l0.32,1.195c-9.619,2.583-12.377,7.484-12.756,8.247
						v10.676c0.916,1.199,8.711,10.177,36.814,10.706c30.209,0.571,38.846-5.026,46.779-12.439v-10.815
						c-0.443-0.858-3.799-6.658-13.938-8.256l0.193-1.224c11.611,1.833,14.799,8.793,14.93,9.087l0.053,0.12v11.625l-0.195,0.184
						C299.094,202.891,290.789,208.546,263.215,208.546z"/>
				</g>
				<g>
					<path fill="#F2F2F2" d="M221.658,185.748c0,0,4.484,11.523,42.189,11.523c35.898,0,42.641-13.402,42.641-13.402"/>
					<path fill="#1B2024" d="M263.848,197.891c-37.697,0-42.578-11.431-42.768-11.917l1.152-0.454
						c0.045,0.112,4.979,11.133,41.615,11.133c35.111,0,42.021-12.931,42.088-13.062l1.104,0.557
						C306.76,184.708,299.715,197.891,263.848,197.891z"/>
				</g>
				<g>
					<path fill="#F2F2F2" d="M234.369,183.948c0,0-1.209-31.778,28.629-32.734c28.129-0.9,30.332,31.379,30.332,31.379
						s-5.883,8.711-29.109,8.586C240.998,191.054,234.369,183.948,234.369,183.948z"/>
					<path fill="#1B2024" d="M264.711,191.799l-0.494-0.001c-23.223-0.125-30.021-7.131-30.299-7.429l-0.156-0.168l-0.012-0.23
						c-0.021-0.612-0.465-15.088,8.654-24.868c5.004-5.368,11.926-8.231,20.574-8.507c0.395-0.012,0.783-0.02,1.166-0.02
						c27.309,0,29.781,31.655,29.803,31.975l0.014,0.212l-0.117,0.176C293.6,183.301,287.594,191.799,264.711,191.799z
						 M234.984,183.676c1.143,1.014,8.539,6.772,29.242,6.884l0.484,0.001c11.58,0,18.613-2.268,22.473-4.171
						c3.488-1.719,5.076-3.454,5.51-3.983c-0.273-2.821-3.605-30.594-28.549-30.594c-0.369,0-0.748,0.006-1.127,0.019
						c-8.307,0.266-14.936,2.996-19.707,8.113C235.174,168.675,234.967,181.72,234.984,183.676z"/>
				</g>
			</g>
		</g>
		<g>
			<defs>
				<path id="SVGID_1_" d="M234.369,183.806c0,0-1.209-31.777,28.629-32.733c28.129-0.9,30.332,31.379,30.332,31.379
					s-5.883,8.712-29.109,8.587C240.998,190.914,234.369,183.806,234.369,183.806z"/>
			</defs>
			<clipPath id="SVGID_2_">
				<use xlink:href="#SVGID_1_"  overflow="visible"/>
			</clipPath>
			<g clip-path="url(#SVGID_2_)">
				<g>
					<polygon fill="#1B2024" points="232.084,195.198 233.311,194.482 232.594,195.708 233.311,196.934 232.084,196.219 
						230.859,196.934 231.572,195.708 230.859,194.482 					"/>
					<polygon fill="#1B2024" points="238.482,195.198 239.709,194.482 238.994,195.708 239.709,196.934 238.482,196.219 
						237.256,196.934 237.973,195.708 237.256,194.482 					"/>
					<polygon fill="#1B2024" points="244.881,195.198 246.107,194.482 245.393,195.708 246.107,196.934 244.881,196.219 
						243.654,196.934 244.371,195.708 243.654,194.482 					"/>
					<polygon fill="#1B2024" points="251.279,195.198 252.504,194.482 251.789,195.708 252.504,196.934 251.279,196.219 
						250.053,196.934 250.771,195.708 250.053,194.482 					"/>
					<polygon fill="#1B2024" points="257.678,195.198 258.904,194.482 258.189,195.708 258.904,196.934 257.678,196.219 
						256.451,196.934 257.168,195.708 256.451,194.482 					"/>
					<polygon fill="#1B2024" points="264.078,195.198 265.305,194.482 264.586,195.708 265.305,196.934 264.078,196.219 
						262.852,196.934 263.566,195.708 262.852,194.482 					"/>
					<polygon fill="#1B2024" points="270.475,195.198 271.705,194.482 270.984,195.708 271.705,196.934 270.475,196.219 
						269.248,196.934 269.967,195.708 269.248,194.482 					"/>
					<polygon fill="#1B2024" points="276.875,195.198 278.102,194.482 277.383,195.708 278.102,196.934 276.875,196.219 
						275.646,196.934 276.365,195.708 275.646,194.482 					"/>
					<polygon fill="#1B2024" points="283.273,195.198 284.5,194.482 283.783,195.708 284.5,196.934 283.273,196.219 
						282.047,196.934 282.764,195.708 282.047,194.482 					"/>
					<polygon fill="#1B2024" points="289.672,195.198 290.898,194.482 290.182,195.708 290.898,196.934 289.672,196.219 
						288.443,196.934 289.162,195.708 288.443,194.482 					"/>
				</g>
				<g>
					<polygon fill="#1B2024" points="232.084,182.626 233.311,181.91 232.594,183.136 233.311,184.363 232.084,183.647 
						230.859,184.363 231.572,183.136 230.859,181.91 					"/>
					<polygon fill="#1B2024" points="238.482,182.626 239.709,181.91 238.994,183.136 239.709,184.363 238.482,183.647 
						237.256,184.363 237.973,183.136 237.256,181.91 					"/>
					<polygon fill="#1B2024" points="244.881,182.626 246.107,181.91 245.393,183.136 246.107,184.363 244.881,183.647 
						243.654,184.363 244.371,183.136 243.654,181.91 					"/>
					<polygon fill="#1B2024" points="251.279,182.626 252.504,181.91 251.789,183.136 252.504,184.363 251.279,183.647 
						250.053,184.363 250.771,183.136 250.053,181.91 					"/>
					<polygon fill="#1B2024" points="257.678,182.626 258.904,181.91 258.189,183.136 258.904,184.363 257.678,183.647 
						256.451,184.363 257.168,183.136 256.451,181.91 					"/>
					<polygon fill="#1B2024" points="264.078,182.626 265.305,181.91 264.586,183.136 265.305,184.363 264.078,183.647 
						262.852,184.363 263.566,183.136 262.852,181.91 					"/>
					<polygon fill="#1B2024" points="270.475,182.626 271.705,181.91 270.984,183.136 271.705,184.363 270.475,183.647 
						269.248,184.363 269.967,183.136 269.248,181.91 					"/>
					<polygon fill="#1B2024" points="276.875,182.626 278.102,181.91 277.383,183.136 278.102,184.363 276.875,183.647 
						275.646,184.363 276.365,183.136 275.646,181.91 					"/>
					<polygon fill="#1B2024" points="283.273,182.626 284.5,181.91 283.783,183.136 284.5,184.363 283.273,183.647 282.047,184.363 
						282.764,183.136 282.047,181.91 					"/>
					<polygon fill="#1B2024" points="289.672,182.626 290.898,181.91 290.182,183.136 290.898,184.363 289.672,183.647 
						288.443,184.363 289.162,183.136 288.443,181.91 					"/>
				</g>
				<g>
					<polygon fill="#1B2024" points="235.281,188.912 236.51,188.195 235.793,189.422 236.51,190.649 235.281,189.933 
						234.059,190.649 234.773,189.422 234.059,188.195 					"/>
					<polygon fill="#1B2024" points="241.68,188.912 242.906,188.195 242.193,189.422 242.906,190.649 241.68,189.933 
						240.457,190.649 241.172,189.422 240.457,188.195 					"/>
					<polygon fill="#1B2024" points="248.082,188.912 249.307,188.195 248.59,189.422 249.307,190.649 248.082,189.933 
						246.854,190.649 247.57,189.422 246.854,188.195 					"/>
					<polygon fill="#1B2024" points="254.479,188.912 255.705,188.195 254.99,189.422 255.705,190.649 254.479,189.933 
						253.252,190.649 253.969,189.422 253.252,188.195 					"/>
					<polygon fill="#1B2024" points="260.877,188.912 262.105,188.195 261.389,189.422 262.105,190.649 260.877,189.933 
						259.65,190.649 260.371,189.422 259.65,188.195 					"/>
					<polygon fill="#1B2024" points="267.275,188.912 268.504,188.195 267.787,189.422 268.504,190.649 267.275,189.933 
						266.047,190.649 266.768,189.422 266.047,188.195 					"/>
					<polygon fill="#1B2024" points="273.676,188.912 274.9,188.195 274.186,189.422 274.9,190.649 273.676,189.933 
						272.449,190.649 273.166,189.422 272.449,188.195 					"/>
					<polygon fill="#1B2024" points="280.074,188.912 281.303,188.195 280.582,189.422 281.303,190.649 280.074,189.933 
						278.846,190.649 279.562,189.422 278.846,188.195 					"/>
					<polygon fill="#1B2024" points="286.473,188.912 287.699,188.195 286.982,189.422 287.699,190.649 286.473,189.933 
						285.244,190.649 285.961,189.422 285.244,188.195 					"/>
					<polygon fill="#1B2024" points="292.871,188.912 294.098,188.195 293.381,189.422 294.098,190.649 292.871,189.933 
						291.643,190.649 292.359,189.422 291.643,188.195 					"/>
				</g>
				<g>
					<polygon fill="#1B2024" points="235.281,176.341 236.51,175.625 235.793,176.852 236.51,178.078 235.281,177.361 
						234.059,178.078 234.773,176.852 234.059,175.625 					"/>
					<polygon fill="#1B2024" points="241.68,176.341 242.906,175.625 242.193,176.852 242.906,178.078 241.68,177.361 
						240.457,178.078 241.172,176.852 240.457,175.625 					"/>
					<polygon fill="#1B2024" points="248.082,176.341 249.307,175.625 248.59,176.852 249.307,178.078 248.082,177.361 
						246.854,178.078 247.57,176.852 246.854,175.625 					"/>
					<polygon fill="#1B2024" points="254.479,176.341 255.705,175.625 254.99,176.852 255.705,178.078 254.479,177.361 
						253.252,178.078 253.969,176.852 253.252,175.625 					"/>
					<polygon fill="#1B2024" points="260.877,176.341 262.105,175.625 261.389,176.852 262.105,178.078 260.877,177.361 
						259.65,178.078 260.371,176.852 259.65,175.625 					"/>
					<polygon fill="#1B2024" points="267.275,176.341 268.504,175.625 267.787,176.852 268.504,178.078 267.275,177.361 
						266.047,178.078 266.768,176.852 266.047,175.625 					"/>
					<polygon fill="#1B2024" points="273.676,176.341 274.9,175.625 274.186,176.852 274.9,178.078 273.676,177.361 
						272.449,178.078 273.166,176.852 272.449,175.625 					"/>
					<polygon fill="#1B2024" points="280.074,176.341 281.303,175.625 280.582,176.852 281.303,178.078 280.074,177.361 
						278.846,178.078 279.562,176.852 278.846,175.625 					"/>
					<polygon fill="#1B2024" points="286.473,176.341 287.699,175.625 286.982,176.852 287.699,178.078 286.473,177.361 
						285.244,178.078 285.961,176.852 285.244,175.625 					"/>
					<polygon fill="#1B2024" points="292.871,176.341 294.098,175.625 293.381,176.852 294.098,178.078 292.871,177.361 
						291.643,178.078 292.359,176.852 291.643,175.625 					"/>
				</g>
				<g>
					<polygon fill="#1B2024" points="232.084,170.056 233.311,169.339 232.594,170.565 233.311,171.792 232.084,171.076 
						230.859,171.792 231.572,170.565 230.859,169.339 					"/>
					<polygon fill="#1B2024" points="238.482,170.056 239.709,169.339 238.994,170.565 239.709,171.792 238.482,171.076 
						237.256,171.792 237.973,170.565 237.256,169.339 					"/>
					<polygon fill="#1B2024" points="244.881,170.056 246.107,169.339 245.393,170.565 246.107,171.792 244.881,171.076 
						243.654,171.792 244.371,170.565 243.654,169.339 					"/>
					<polygon fill="#1B2024" points="251.279,170.056 252.504,169.339 251.789,170.565 252.504,171.792 251.279,171.076 
						250.053,171.792 250.771,170.565 250.053,169.339 					"/>
					<polygon fill="#1B2024" points="257.678,170.056 258.904,169.339 258.189,170.565 258.904,171.792 257.678,171.076 
						256.451,171.792 257.168,170.565 256.451,169.339 					"/>
					<polygon fill="#1B2024" points="264.078,170.056 265.305,169.339 264.586,170.565 265.305,171.792 264.078,171.076 
						262.852,171.792 263.566,170.565 262.852,169.339 					"/>
					<polygon fill="#1B2024" points="270.475,170.056 271.705,169.339 270.984,170.565 271.705,171.792 270.475,171.076 
						269.248,171.792 269.967,170.565 269.248,169.339 					"/>
					<polygon fill="#1B2024" points="276.875,170.056 278.102,169.339 277.383,170.565 278.102,171.792 276.875,171.076 
						275.646,171.792 276.365,170.565 275.646,169.339 					"/>
					<polygon fill="#1B2024" points="283.273,170.056 284.5,169.339 283.783,170.565 284.5,171.792 283.273,171.076 
						282.047,171.792 282.764,170.565 282.047,169.339 					"/>
					<polygon fill="#1B2024" points="289.672,170.056 290.898,169.339 290.182,170.565 290.898,171.792 289.672,171.076 
						288.443,171.792 289.162,170.565 288.443,169.339 					"/>
				</g>
				<g>
					<polygon fill="#1B2024" points="232.084,157.484 233.311,156.769 232.594,157.994 233.311,159.221 232.084,158.504 
						230.859,159.221 231.572,157.994 230.859,156.769 					"/>
					<polygon fill="#1B2024" points="238.482,157.484 239.709,156.769 238.994,157.994 239.709,159.221 238.482,158.504 
						237.256,159.221 237.973,157.994 237.256,156.769 					"/>
					<polygon fill="#1B2024" points="244.881,157.484 246.107,156.769 245.393,157.994 246.107,159.221 244.881,158.504 
						243.654,159.221 244.371,157.994 243.654,156.769 					"/>
					<polygon fill="#1B2024" points="251.279,157.484 252.504,156.769 251.789,157.994 252.504,159.221 251.279,158.504 
						250.053,159.221 250.771,157.994 250.053,156.769 					"/>
					<polygon fill="#1B2024" points="257.678,157.484 258.904,156.769 258.189,157.994 258.904,159.221 257.678,158.504 
						256.451,159.221 257.168,157.994 256.451,156.769 					"/>
					<polygon fill="#1B2024" points="264.078,157.484 265.305,156.769 264.586,157.994 265.305,159.221 264.078,158.504 
						262.852,159.221 263.566,157.994 262.852,156.769 					"/>
					<polygon fill="#1B2024" points="270.475,157.484 271.705,156.769 270.984,157.994 271.705,159.221 270.475,158.504 
						269.248,159.221 269.967,157.994 269.248,156.769 					"/>
					<polygon fill="#1B2024" points="276.875,157.484 278.102,156.769 277.383,157.994 278.102,159.221 276.875,158.504 
						275.646,159.221 276.365,157.994 275.646,156.769 					"/>
					<polygon fill="#1B2024" points="283.273,157.484 284.5,156.769 283.783,157.994 284.5,159.221 283.273,158.504 
						282.047,159.221 282.764,157.994 282.047,156.769 					"/>
					<polygon fill="#1B2024" points="289.672,157.484 290.898,156.769 290.182,157.994 290.898,159.221 289.672,158.504 
						288.443,159.221 289.162,157.994 288.443,156.769 					"/>
				</g>
				<g>
					<polygon fill="#1B2024" points="235.281,163.77 236.51,163.053 235.793,164.279 236.51,165.507 235.281,164.79 
						234.059,165.507 234.773,164.279 234.059,163.053 					"/>
					<polygon fill="#1B2024" points="241.68,163.77 242.906,163.053 242.193,164.279 242.906,165.507 241.68,164.79 
						240.457,165.507 241.172,164.279 240.457,163.053 					"/>
					<polygon fill="#1B2024" points="248.082,163.77 249.307,163.053 248.59,164.279 249.307,165.507 248.082,164.79 
						246.854,165.507 247.57,164.279 246.854,163.053 					"/>
					<polygon fill="#1B2024" points="254.479,163.77 255.705,163.053 254.99,164.279 255.705,165.507 254.479,164.79 
						253.252,165.507 253.969,164.279 253.252,163.053 					"/>
					<polygon fill="#1B2024" points="260.877,163.77 262.105,163.053 261.389,164.279 262.105,165.507 260.877,164.79 
						259.65,165.507 260.371,164.279 259.65,163.053 					"/>
					<polygon fill="#1B2024" points="267.275,163.77 268.504,163.053 267.787,164.279 268.504,165.507 267.275,164.79 
						266.047,165.507 266.768,164.279 266.047,163.053 					"/>
					<polygon fill="#1B2024" points="273.676,163.77 274.9,163.053 274.186,164.279 274.9,165.507 273.676,164.79 272.449,165.507 
						273.166,164.279 272.449,163.053 					"/>
					<polygon fill="#1B2024" points="280.074,163.77 281.303,163.053 280.582,164.279 281.303,165.507 280.074,164.79 
						278.846,165.507 279.562,164.279 278.846,163.053 					"/>
					<polygon fill="#1B2024" points="286.473,163.77 287.699,163.053 286.982,164.279 287.699,165.507 286.473,164.79 
						285.244,165.507 285.961,164.279 285.244,163.053 					"/>
					<polygon fill="#1B2024" points="292.871,163.77 294.098,163.053 293.381,164.279 294.098,165.507 292.871,164.79 
						291.643,165.507 292.359,164.279 291.643,163.053 					"/>
				</g>
				<g>
					<polygon fill="#1B2024" points="235.281,151.199 236.51,150.482 235.793,151.708 236.51,152.936 235.281,152.22 
						234.059,152.936 234.773,151.708 234.059,150.482 					"/>
					<polygon fill="#1B2024" points="241.68,151.199 242.906,150.482 242.193,151.708 242.906,152.936 241.68,152.22 
						240.457,152.936 241.172,151.708 240.457,150.482 					"/>
					<polygon fill="#1B2024" points="248.082,151.199 249.307,150.482 248.59,151.708 249.307,152.936 248.082,152.22 
						246.854,152.936 247.57,151.708 246.854,150.482 					"/>
					<polygon fill="#1B2024" points="254.479,151.199 255.705,150.482 254.99,151.708 255.705,152.936 254.479,152.22 
						253.252,152.936 253.969,151.708 253.252,150.482 					"/>
					<polygon fill="#1B2024" points="260.877,151.199 262.105,150.482 261.389,151.708 262.105,152.936 260.877,152.22 
						259.65,152.936 260.371,151.708 259.65,150.482 					"/>
					<polygon fill="#1B2024" points="267.275,151.199 268.504,150.482 267.787,151.708 268.504,152.936 267.275,152.22 
						266.047,152.936 266.768,151.708 266.047,150.482 					"/>
					<polygon fill="#1B2024" points="273.676,151.199 274.9,150.482 274.186,151.708 274.9,152.936 273.676,152.22 272.449,152.936 
						273.166,151.708 272.449,150.482 					"/>
					<polygon fill="#1B2024" points="280.074,151.199 281.303,150.482 280.582,151.708 281.303,152.936 280.074,152.22 
						278.846,152.936 279.562,151.708 278.846,150.482 					"/>
					<polygon fill="#1B2024" points="286.473,151.199 287.699,150.482 286.982,151.708 287.699,152.936 286.473,152.22 
						285.244,152.936 285.961,151.708 285.244,150.482 					"/>
					<polygon fill="#1B2024" points="292.871,151.199 294.098,150.482 293.381,151.708 294.098,152.936 292.871,152.22 
						291.643,152.936 292.359,151.708 291.643,150.482 					"/>
				</g>
			</g>
		</g>
	</g>
	<g>
		<g>
			<g>
				<path fill="#F2F2F2" d="M196.773,197.209c13.059,5.742,33.723,15.689,42.014,56l-9.592,5.316l-8.184-4.939l-23.008-52.873
					l-30.258-73.136c0,0-0.396,0.346-0.572,0.786c-0.174,0.441,22.916,81.284,22.916,81.284s-18.156-13.096-47.447-9.84
					l15.355-8.417c0,0,14.047-1.625,27.398,1.693"/>
				<path fill="#1B2024" d="M229.184,259.24l-8.66-5.225l-0.078-0.182l-23.008-52.874l-28.977-70.04
					c3.004,11.1,15.342,54.455,22.225,78.557l0.49,1.714l-1.447-1.042c-0.18-0.13-18.324-12.917-47.018-9.728l-3.109,0.345
					l18.203-9.979l0.121-0.014c0.139-0.017,13.564-1.517,26.549,1.452c-18.104-63.511-17.969-63.858-17.875-64.092
					c0.223-0.562,0.688-0.979,0.74-1.024l0.648-0.568l29.02,70.136l0.016-0.036c5.506,2.422,14.725,6.476,22.992,15.176
					c9.354,9.84,15.689,23.337,19.377,41.265l0.092,0.445L229.184,259.24z M221.502,253.16l7.707,4.65l8.879-4.922
					c-8.211-39.257-28.621-49.382-40.418-54.608l0.908,2.196L221.502,253.16z M151.84,198.673c19.596,0,32.998,7.026,37.205,9.568
					c-1.49-5.214-2.883-10.096-4.182-14.652c-12.328-2.973-25.305-1.74-26.678-1.598l-12.623,6.921
					C147.719,198.749,149.812,198.673,151.84,198.673z"/>
			</g>
			<g>
				<line fill="#F2F2F2" x1="186.732" y1="197.211" x2="180.928" y2="204.902"/>
				
					<rect x="183.212" y="196.239" transform="matrix(0.7977 0.603 -0.603 0.7977 158.4265 -70.1853)" fill="#1B2024" width="1.239" height="9.635"/>
			</g>
			<g>
				<line fill="#F2F2F2" x1="182.508" y1="183.086" x2="169.57" y2="201.159"/>
				
					<rect x="175.419" y="181.01" transform="matrix(0.813 0.5822 -0.5822 0.813 144.7673 -66.572)" fill="#1B2024" width="1.24" height="22.225"/>
			</g>
			<g>
				<line fill="#F2F2F2" x1="177.908" y1="166.855" x2="156.643" y2="199.533"/>
				
					<rect x="166.657" y="163.699" transform="matrix(0.8383 0.5452 -0.5452 0.8383 126.928 -61.5781)" fill="#1B2024" width="1.239" height="38.991"/>
			</g>
			<g>
				<line fill="#F2F2F2" x1="171.672" y1="145.056" x2="143.203" y2="199.724"/>
				
					<rect x="156.819" y="141.572" transform="matrix(0.8869 0.462 -0.462 0.8869 97.4501 -53.2344)" fill="#1B2024" width="1.238" height="61.636"/>
			</g>
			<g>
				<path fill="#F2F2F2" d="M135.289,203.571c64.734,1.331,71.385,41.579,71.385,41.579"/>
				<path fill="#1B2024" d="M206.062,245.25c-0.014-0.098-1.768-10.049-11.311-20.023c-8.822-9.221-26.301-20.355-59.477-21.037
					l0.027-1.239c18.574,0.383,44.131,4.419,60.402,21.481c9.775,10.247,11.51,20.198,11.58,20.616L206.062,245.25z"/>
			</g>
		</g>
		<g>
			<polygon fill="#F2F2F2" points="228.973,258.669 167.787,127.287 167.523,127.72 219.922,253.154 			"/>
			<path fill="#1B2024" d="M228.973,259.289c-0.111,0-0.221-0.027-0.322-0.09l-9.049-5.516c-0.113-0.068-0.199-0.17-0.25-0.291
				l-52.398-125.434c-0.078-0.183-0.062-0.391,0.041-0.56l0.264-0.433c0.117-0.195,0.338-0.302,0.562-0.296
				c0.229,0.012,0.432,0.149,0.527,0.356l61.186,131.384c0.115,0.246,0.057,0.541-0.148,0.723
				C229.27,259.236,229.123,259.289,228.973,259.289z M220.418,252.73l7.131,4.346l-51.611-110.818L220.418,252.73z"/>
		</g>
	</g>
	<path fill="#1B2024" d="M229.197,261.205l-96.213-56.084V94.388l96.217-54.379l95.135,54.386v111.197L229.197,261.205z
		 M137.111,202.749l92.084,53.677l91.012-53.202V96.79l-91.018-52.033l-92.078,52.04V202.749z"/>
	<g>
		<line fill="#F2F2F2" x1="308.684" y1="202.47" x2="300.004" y2="201.997"/>
		
			<rect x="299.997" y="201.614" transform="matrix(0.9985 0.0544 -0.0544 0.9985 11.4467 -16.2495)" fill="#1B2024" width="8.693" height="1.239"/>
	</g>
</g>
</svg>
