<?xml version="1.0" encoding="utf-8"?>
<!-- Generator: Adobe Illustrator 16.0.0, SVG Export Plug-In . SVG Version: 6.00 Build 0)  -->
<!DOCTYPE svg PUBLIC "-//W3C//DTD SVG 1.1//EN" "http://www.w3.org/Graphics/SVG/1.1/DTD/svg11.dtd">
<svg version="1.1" id="Layer_1" xmlns="http://www.w3.org/2000/svg" xmlns:xlink="http://www.w3.org/1999/xlink" x="0px" y="0px"
	 width="197.158px" height="227.907px" viewBox="0 0 197.158 227.907" enable-background="new 0 0 197.158 227.907"
	 xml:space="preserve">
<g>
	<polygon fill="#F2F2F2" points="2.127,57.27 99.13,2.445 195.031,57.27 195.031,169.386 99.13,225.443 2.127,168.898 	"/>
	<polygon fill="#BCD636" points="3.423,77.536 28.592,62.122 28.491,99.68 44.608,90.066 44.608,76.594 65.998,64.562 
		65.998,45.498 81.002,37.017 81.073,70.925 99.326,59.896 99.47,46.232 114.426,54.407 114.426,32.822 127.829,40.484 
		127.885,62.298 140.464,68.881 140.64,37.995 153.893,45.503 153.961,89.192 169.63,98.805 169.63,68.222 193.662,82.396 
		193.733,169.194 99.398,113.945 3.376,168.685 	"/>
	<g>
		<g>
			<polygon fill="#F2F2F2" points="83.804,143.736 99.114,153.302 99.114,18.31 93.755,21.882 			"/>
			<path fill="#1B2024" d="M99.751,154.453l-16.616-10.381l0.032-0.387l9.977-122.162l6.606-4.406V154.453z M84.472,143.401
				l14.004,8.749V19.501l-4.109,2.74L84.472,143.401z"/>
		</g>
		<g>
			<polygon fill="#F2F2F2" points="114.426,143.736 99.114,153.302 99.114,18.31 104.475,21.882 			"/>
			<path fill="#1B2024" d="M98.476,154.453V17.117l6.608,4.406l0.024,0.307l9.983,122.242L98.476,154.453z M99.751,19.501V152.15
				l14.007-8.749l-9.896-121.159L99.751,19.501z"/>
		</g>
		<g>
			<polygon fill="#F2F2F2" points="99.128,24.44 98.967,14.396 93.755,21.882 			"/>
			<path fill="#1B2024" d="M99.128,25.078c-0.095,0-0.188-0.02-0.274-0.061l-5.373-2.559c-0.171-0.081-0.296-0.231-0.342-0.413
				c-0.048-0.182-0.014-0.374,0.093-0.528l5.212-7.486c0.157-0.227,0.447-0.325,0.708-0.246c0.266,0.081,0.449,0.324,0.453,0.6
				l0.161,10.045c0.004,0.221-0.106,0.428-0.294,0.546C99.368,25.044,99.247,25.078,99.128,25.078z M94.709,21.63l3.763,1.792
				l-0.111-7.038L94.709,21.63z"/>
		</g>
		<g>
			<polygon fill="#F2F2F2" points="99.128,24.44 99.036,14.411 104.475,21.716 			"/>
			<path fill="#1B2024" d="M99.128,25.078c-0.115,0-0.229-0.03-0.333-0.092c-0.187-0.114-0.304-0.318-0.306-0.54l-0.095-10.029
				c-0.002-0.276,0.175-0.522,0.435-0.61c0.264-0.088,0.551,0.001,0.716,0.224l5.439,7.304c0.113,0.151,0.151,0.343,0.109,0.526
				c-0.045,0.183-0.163,0.339-0.332,0.424l-5.346,2.724C99.326,25.055,99.227,25.078,99.128,25.078z M99.692,16.362l0.066,7.042
				l3.753-1.913L99.692,16.362z"/>
		</g>
	</g>
	<rect x="58.86" y="77.948" fill="#1B2024" width="81.158" height="17.226"/>
	<g>
		<g>
			<path fill="#1B2024" d="M28.85,53.07l8.496,13.656h0.056V53.07h4.192v20.357h-4.478L28.65,59.798h-0.059v13.629h-4.19V53.07
				H28.85z"/>
			<path fill="#1B2024" d="M44.474,59.1c0.455-1.302,1.113-2.438,1.966-3.407c0.857-0.97,1.905-1.729,3.149-2.281
				c1.246-0.551,2.648-0.827,4.206-0.827c1.578,0,2.984,0.276,4.22,0.827c1.235,0.552,2.28,1.311,3.135,2.281
				c0.857,0.969,1.513,2.105,1.97,3.407c0.455,1.301,0.682,2.713,0.682,4.233c0,1.483-0.228,2.866-0.682,4.149
				c-0.457,1.282-1.113,2.401-1.97,3.35c-0.855,0.95-1.9,1.697-3.135,2.238c-1.236,0.542-2.643,0.812-4.22,0.812
				c-1.558,0-2.96-0.27-4.206-0.812c-1.244-0.542-2.292-1.288-3.149-2.238c-0.854-0.949-1.512-2.067-1.966-3.35
				c-0.457-1.283-0.684-2.666-0.684-4.149C43.79,61.813,44.017,60.401,44.474,59.1z"/>
			<path fill="#1B2024" d="M74.78,53.07c1.312,0,2.532,0.209,3.663,0.626c1.131,0.418,2.109,1.046,2.938,1.882
				c0.825,0.835,1.473,1.881,1.94,3.135c0.463,1.255,0.698,2.729,0.698,4.42c0,1.481-0.191,2.851-0.571,4.104
				c-0.38,1.255-0.956,2.338-1.725,3.251c-0.771,0.912-1.729,1.63-2.88,2.152c-1.149,0.523-2.505,0.785-4.063,0.785h-8.782V53.07
				H74.78z M74.466,69.663c0.646,0,1.274-0.104,1.881-0.313c0.61-0.209,1.151-0.556,1.628-1.04c0.473-0.487,0.855-1.118,1.137-1.897
				c0.286-0.779,0.429-1.729,0.429-2.851c0-1.027-0.099-1.953-0.3-2.779c-0.199-0.827-0.525-1.536-0.982-2.125
				c-0.457-0.589-1.059-1.041-1.812-1.354c-0.752-0.313-1.676-0.47-2.779-0.47h-3.194v12.829H74.466z"/>
			<path fill="#1B2024" d="M101.495,53.07v3.764H90.747v4.361h9.864v3.478h-9.864v4.99h10.978v3.764H86.271V53.07H101.495z"/>
			<path fill="#1B2024" d="M116.95,58.501c-0.27-0.428-0.602-0.802-0.998-1.126c-0.398-0.323-0.852-0.575-1.356-0.756
				c-0.503-0.18-1.03-0.271-1.582-0.271c-1.008,0-1.863,0.196-2.563,0.585c-0.704,0.391-1.277,0.913-1.715,1.568
				c-0.433,0.656-0.754,1.403-0.953,2.238c-0.199,0.837-0.298,1.701-0.298,2.594c0,0.856,0.099,1.687,0.298,2.495
				c0.199,0.808,0.521,1.535,0.953,2.183c0.438,0.646,1.011,1.163,1.715,1.552c0.7,0.391,1.556,0.586,2.563,0.586
				c1.367,0,2.438-0.419,3.206-1.255c0.771-0.835,1.241-1.939,1.415-3.307h4.332c-0.114,1.272-0.408,2.424-0.885,3.45
				c-0.474,1.025-1.102,1.899-1.88,2.623c-0.781,0.722-1.694,1.274-2.739,1.653c-1.046,0.379-2.193,0.57-3.449,0.57
				c-1.558,0-2.96-0.27-4.205-0.812c-1.244-0.542-2.295-1.288-3.149-2.238c-0.857-0.949-1.512-2.067-1.969-3.35
				c-0.454-1.283-0.684-2.666-0.684-4.149c0-1.52,0.229-2.932,0.684-4.233c0.457-1.302,1.111-2.438,1.969-3.407
				c0.854-0.97,1.905-1.729,3.149-2.281c1.245-0.551,2.647-0.827,4.205-0.827c1.121,0,2.182,0.162,3.178,0.485
				c1.002,0.323,1.894,0.793,2.681,1.411c0.791,0.618,1.44,1.383,1.954,2.295c0.516,0.913,0.835,1.957,0.968,3.137h-4.333
				C117.386,59.399,117.211,58.929,116.95,58.501z"/>
			<path fill="#1B2024" d="M145.087,53.07l8.496,13.656h0.054V53.07h4.19v20.357h-4.474l-8.468-13.629h-0.059v13.629h-4.188V53.07
				H145.087z"/>
			<path fill="#1B2024" d="M175.224,53.07v3.764h-9.838v4.703h8.522v3.479h-8.522v8.412h-4.479V53.07H175.224z"/>
		</g>
		<circle fill="#1B2024" cx="131.286" cy="63.234" r="7.074"/>
	</g>
	<g>
		<path fill="#F2F2F2" d="M65.115,91.429h-1.256l3.096-10.045h1.326l3.112,10.045h-1.379l-0.686-2.207h-3.532L65.115,91.429z
			 M66.106,88.218h2.931l-1.21-3.812l-0.281-1.021l-0.254,1.021L66.106,88.218z"/>
		<path fill="#F2F2F2" d="M73.873,87.157v4.272h-1.308V81.383h2.684c0.875,0,1.52,0.09,1.933,0.268
			c0.415,0.179,0.734,0.45,0.961,0.812c0.226,0.362,0.339,0.752,0.339,1.17c0,0.388-0.076,0.778-0.227,1.17
			c-0.15,0.393-0.358,0.743-0.623,1.051c-0.265,0.308-0.647,0.6-1.146,0.876l2.905,4.698h-1.558l-2.659-4.272H73.873z
			 M73.873,86.154h1.825c0.411-0.225,0.716-0.454,0.917-0.688c0.201-0.233,0.353-0.482,0.456-0.745
			c0.104-0.264,0.155-0.528,0.155-0.792c0-0.471-0.171-0.846-0.513-1.125c-0.343-0.279-0.964-0.418-1.864-0.418h-0.975V86.154z"/>
		<path fill="#F2F2F2" d="M86.598,91.422c-0.708,0.207-1.357,0.311-1.948,0.311c-0.837,0-1.583-0.207-2.237-0.621
			c-0.654-0.415-1.166-1.039-1.538-1.874c-0.371-0.835-0.556-1.779-0.556-2.832c0-1.04,0.181-1.974,0.543-2.802
			c0.363-0.829,0.874-1.457,1.534-1.883c0.66-0.427,1.386-0.641,2.174-0.641c0.596,0,1.269,0.139,2.02,0.418v1.191
			c-0.694-0.403-1.384-0.606-2.071-0.606c-0.518,0-0.991,0.177-1.42,0.531c-0.43,0.354-0.775,0.874-1.036,1.558
			c-0.262,0.685-0.392,1.433-0.392,2.245c0,1.088,0.248,2.079,0.744,2.973c0.496,0.894,1.28,1.341,2.35,1.341
			c0.139,0,0.313-0.011,0.524-0.033v-3.236h-1.003v-1.003h2.312V91.422z"/>
		<path fill="#F2F2F2" d="M94.248,90.322v1.107h-5.423V81.383h5.327v1.01h-4.02v3.411h3.618v1.003h-3.618v3.515H94.248z"/>
		<path fill="#F2F2F2" d="M97.484,91.429h-1.203V81.383h1.177l3.546,6.687l0.389,0.997h0.033l-0.033-0.997v-6.687h1.204v10.045
			h-1.204l-3.45-6.572l-0.485-1.055l0.026,1.042V91.429z"/>
		<path fill="#F2F2F2" d="M106.74,91.429V82.49h-3.01v-1.107h7.327v1.107h-3.01v8.938H106.74z"/>
		<path fill="#F2F2F2" d="M112.488,91.429v-1.003h2.207v-8.039h-2.207v-1.003h5.722v1.003h-2.208v8.039h2.208v1.003H112.488z"/>
		<path fill="#F2F2F2" d="M121.349,91.429h-1.204V81.383h1.178l3.547,6.687l0.389,0.997h0.033l-0.033-0.997v-6.687h1.204v10.045
			h-1.204l-3.45-6.572l-0.485-1.055l0.026,1.042V91.429z"/>
		<path fill="#F2F2F2" d="M128.753,91.429h-1.256l3.097-10.045h1.326l3.111,10.045h-1.378l-0.687-2.207h-3.531L128.753,91.429z
			 M129.745,88.218h2.931l-1.21-3.812l-0.281-1.021l-0.254,1.021L129.745,88.218z"/>
	</g>
	<g>
		<path fill="#F2F2F2" d="M172.298,162.529c0,0,6.009,0.089,8.732,4.861l3.767-2.138c0,0-4.421-5.539-10.448-5.539"/>
		<path fill="#1B2024" d="M180.792,168.259l-0.317-0.553c-2.512-4.406-8.128-4.537-8.185-4.539l0.016-1.275
			c0.252,0.003,5.959,0.141,8.945,4.64l2.544-1.445c-1.288-1.364-4.925-4.734-9.446-4.734v-1.276c6.265,0,10.758,5.542,10.945,5.778
			l0.465,0.583L180.792,168.259z"/>
	</g>
	<g>
		<g>
			<g>
				<path fill="#F2F2F2" d="M112.446,171.182c0,0,8.769,11.241,6.706,22.383l15.841,1.321c0,0,1.558-18.254,15.307-24.013"/>
				<path fill="#1B2024" d="M134.993,195.525c-0.018,0-0.036-0.001-0.052-0.003l-15.844-1.322c-0.182-0.015-0.345-0.104-0.453-0.248
					c-0.11-0.145-0.154-0.325-0.12-0.504c1.985-10.721-6.494-21.763-6.581-21.873l1.006-0.783
					c0.358,0.457,8.573,11.145,6.943,22.194l14.535,1.214c0.186-1.446,0.785-5.175,2.47-9.396
					c2.823-7.074,7.373-12.096,13.154-14.517l0.495,1.176c-13.226,5.538-14.901,23.299-14.918,23.479
					C135.601,195.274,135.319,195.525,134.993,195.525z"/>
			</g>
			<g>
				<path fill="#F2F2F2" d="M172.757,164.38c0,0-1.582,8.285-2.717,10.038l-6.142,3.604l-10.602-6.801"/>
				<path fill="#1B2024" d="M163.882,178.77l-10.929-7.013l0.69-1.072l10.269,6.588l5.665-3.323c0.876-1.566,2.133-7.48,2.556-9.688
					l1.254,0.239c-0.167,0.861-1.642,8.459-2.812,10.264l-0.082,0.127L163.882,178.77z"/>
			</g>
			<g>
				<path fill="#F2F2F2" d="M134.993,194.886l2.825-1.632c0,0-0.06-13.08,15.514-22.672l-3.738,0.604
					C149.593,171.186,137.053,176.259,134.993,194.886z"/>
				<path fill="#1B2024" d="M134.993,195.525c-0.122,0-0.243-0.035-0.35-0.104c-0.199-0.132-0.311-0.365-0.284-0.603
					c1.083-9.799,5.079-15.852,8.243-19.204c3.449-3.655,6.618-4.965,6.753-5.02c0.045-0.018,0.091-0.029,0.14-0.038l3.736-0.604
					c0.304-0.053,0.594,0.124,0.698,0.408c0.107,0.285-0.004,0.606-0.262,0.765c-15.095,9.297-15.211,21.998-15.211,22.127
					c0.002,0.229-0.121,0.44-0.318,0.555l-2.827,1.633C135.212,195.496,135.101,195.525,134.993,195.525z M149.772,171.804
					c-0.907,0.404-11.676,5.548-13.986,21.888l1.402-0.81c0.107-2.143,1.246-12.583,13.328-21.199L149.772,171.804z"/>
			</g>
			<g>
				<path fill="#F2F2F2" d="M163.899,178.022l-16.314-3.153c2.381-2.325,5.166-3.995,5.166-3.995L163.899,178.022z"/>
				<path fill="#1B2024" d="M163.899,178.661c-0.04,0-0.081-0.004-0.123-0.013l-16.312-3.153c-0.233-0.044-0.425-0.214-0.491-0.44
					c-0.068-0.229-0.004-0.475,0.165-0.64c2.409-2.353,5.17-4.02,5.285-4.088c0.209-0.124,0.469-0.12,0.674,0.011l11.146,7.146
					c0.258,0.165,0.362,0.49,0.248,0.774C164.394,178.503,164.155,178.661,163.899,178.661z M148.945,174.483l11.811,2.282
					l-8.009-5.136C152.08,172.056,150.506,173.108,148.945,174.483z"/>
			</g>
			<g>
				<g>
					<path fill="#F2F2F2" d="M98.307,163.012c0,0-6.649,3.913-7.269,7.626l-3.397-0.857c0,0,3.818-9.538,8.907-9.538"/>
					<path fill="#1B2024" d="M91.553,171.425l-4.775-1.204l0.27-0.677c0.163-0.406,4.043-9.939,9.5-9.939v1.275
						c-3.854,0-7.065,6.355-8.023,8.466l2.05,0.516c1.224-3.723,7.142-7.242,7.41-7.399l0.646,1.1
						c-1.779,1.048-6.496,4.379-6.963,7.182L91.553,171.425z"/>
				</g>
				<g>
					<path fill="#F2F2F2" d="M163.869,139.234c11.761,1.856,14.899,8.991,14.899,8.991v11.567
						c-8.194,7.695-17.137,13.778-48.849,13.179c-31.715-0.599-38.555-11.465-38.555-11.465v-11.346c0,0,2.475-5.98,13.616-8.972"/>
					<path fill="#1B2024" d="M134.182,173.651c-1.379,0-2.802-0.016-4.274-0.042c-31.695-0.6-38.797-11.307-39.085-11.762
						l-0.099-0.155v-11.658l0.048-0.116c0.107-0.257,2.727-6.307,14.041-9.344l0.33,1.23c-9.911,2.661-12.752,7.712-13.143,8.497v11
						c0.944,1.235,8.975,10.486,37.932,11.032c31.125,0.588,40.024-5.179,48.198-12.817v-11.145
						c-0.457-0.883-3.914-6.859-14.36-8.506l0.199-1.262c11.964,1.89,15.248,9.06,15.383,9.363l0.055,0.123v11.978l-0.201,0.19
						C171.15,167.824,162.593,173.651,134.182,173.651z"/>
				</g>
				<g>
					<path fill="#F2F2F2" d="M91.364,150.161c0,0,4.621,11.873,43.469,11.873c36.988,0,43.935-13.809,43.935-13.809"/>
					<path fill="#1B2024" d="M134.833,162.671c-38.841,0-43.87-11.778-44.065-12.279l1.188-0.467
						c0.046,0.115,5.129,11.471,42.877,11.471c36.177,0,43.297-13.324,43.365-13.459l1.137,0.574
						C179.048,149.089,171.79,162.671,134.833,162.671z"/>
				</g>
				<g>
					<path fill="#F2F2F2" d="M104.46,148.305c0,0-1.245-32.741,29.498-33.727c28.982-0.928,31.252,32.331,31.252,32.331
						s-6.061,8.976-29.992,8.848C111.291,155.627,104.46,148.305,104.46,148.305z"/>
					<path fill="#1B2024" d="M135.723,156.395h-0.509c-23.928-0.129-30.933-7.348-31.219-7.655l-0.16-0.173l-0.013-0.237
						c-0.021-0.63-0.479-15.546,8.917-25.623c5.156-5.531,12.288-8.48,21.198-8.765c0.407-0.013,0.808-0.02,1.202-0.02
						c28.137,0,30.685,32.615,30.707,32.945l0.014,0.218l-0.121,0.183C165.489,147.639,159.3,156.395,135.723,156.395z
						 M105.095,148.026c1.177,1.045,8.798,6.978,30.129,7.094l0.499,0.001c11.932,0,19.179-2.338,23.155-4.298
						c3.594-1.771,5.229-3.559,5.677-4.104c-0.282-2.906-3.715-31.522-29.415-31.522c-0.381,0-0.771,0.006-1.161,0.019
						c-8.559,0.274-15.389,3.086-20.306,8.359C105.29,132.57,105.077,146.011,105.095,148.026z"/>
				</g>
			</g>
		</g>
		<g>
			<defs>
				<path id="SVGID_1_" d="M104.46,148.161c0,0-1.245-32.741,29.498-33.727c28.982-0.928,31.252,32.331,31.252,32.331
					s-6.061,8.978-29.992,8.849C111.291,155.484,104.46,148.161,104.46,148.161z"/>
			</defs>
			<clipPath id="SVGID_2_">
				<use xlink:href="#SVGID_1_"  overflow="visible"/>
			</clipPath>
			<g clip-path="url(#SVGID_2_)">
				<g>
					<polygon fill="#1B2024" points="102.106,159.897 103.371,159.161 102.631,160.422 103.371,161.686 102.106,160.95 
						100.844,161.686 101.58,160.422 100.844,159.161 					"/>
					<polygon fill="#1B2024" points="108.699,159.897 109.962,159.161 109.226,160.422 109.962,161.686 108.699,160.95 
						107.435,161.686 108.173,160.422 107.435,159.161 					"/>
					<polygon fill="#1B2024" points="115.292,159.897 116.555,159.161 115.819,160.422 116.555,161.686 115.292,160.95 
						114.028,161.686 114.766,160.422 114.028,159.161 					"/>
					<polygon fill="#1B2024" points="121.884,159.897 123.146,159.161 122.41,160.422 123.146,161.686 121.884,160.95 
						120.621,161.686 121.361,160.422 120.621,159.161 					"/>
					<polygon fill="#1B2024" points="128.477,159.897 129.741,159.161 129.004,160.422 129.741,161.686 128.477,160.95 
						127.213,161.686 127.952,160.422 127.213,159.161 					"/>
					<polygon fill="#1B2024" points="135.072,159.897 136.335,159.161 135.594,160.422 136.335,161.686 135.072,160.95 
						133.807,161.686 134.544,160.422 133.807,159.161 					"/>
					<polygon fill="#1B2024" points="141.662,159.897 142.93,159.161 142.187,160.422 142.93,161.686 141.662,160.95 
						140.398,161.686 141.139,160.422 140.398,159.161 					"/>
					<polygon fill="#1B2024" points="148.256,159.897 149.52,159.161 148.78,160.422 149.52,161.686 148.256,160.95 
						146.991,161.686 147.731,160.422 146.991,159.161 					"/>
					<polygon fill="#1B2024" points="154.849,159.897 156.113,159.161 155.375,160.422 156.113,161.686 154.849,160.95 
						153.585,161.686 154.324,160.422 153.585,159.161 					"/>
					<polygon fill="#1B2024" points="161.442,159.897 162.706,159.161 161.967,160.422 162.706,161.686 161.442,160.95 
						160.176,161.686 160.917,160.422 160.176,159.161 					"/>
				</g>
				<g>
					<polygon fill="#1B2024" points="102.106,146.945 103.371,146.207 102.631,147.469 103.371,148.734 102.106,147.996 
						100.844,148.734 101.58,147.469 100.844,146.207 					"/>
					<polygon fill="#1B2024" points="108.699,146.945 109.962,146.207 109.226,147.469 109.962,148.734 108.699,147.996 
						107.435,148.734 108.173,147.469 107.435,146.207 					"/>
					<polygon fill="#1B2024" points="115.292,146.945 116.555,146.207 115.819,147.469 116.555,148.734 115.292,147.996 
						114.028,148.734 114.766,147.469 114.028,146.207 					"/>
					<polygon fill="#1B2024" points="121.884,146.945 123.146,146.207 122.41,147.469 123.146,148.734 121.884,147.996 
						120.621,148.734 121.361,147.469 120.621,146.207 					"/>
					<polygon fill="#1B2024" points="128.477,146.945 129.741,146.207 129.004,147.469 129.741,148.734 128.477,147.996 
						127.213,148.734 127.952,147.469 127.213,146.207 					"/>
					<polygon fill="#1B2024" points="135.072,146.945 136.335,146.207 135.594,147.469 136.335,148.734 135.072,147.996 
						133.807,148.734 134.544,147.469 133.807,146.207 					"/>
					<polygon fill="#1B2024" points="141.662,146.945 142.93,146.207 142.187,147.469 142.93,148.734 141.662,147.996 
						140.398,148.734 141.139,147.469 140.398,146.207 					"/>
					<polygon fill="#1B2024" points="148.256,146.945 149.52,146.207 148.78,147.469 149.52,148.734 148.256,147.996 
						146.991,148.734 147.731,147.469 146.991,146.207 					"/>
					<polygon fill="#1B2024" points="154.849,146.945 156.113,146.207 155.375,147.469 156.113,148.734 154.849,147.996 
						153.585,148.734 154.324,147.469 153.585,146.207 					"/>
					<polygon fill="#1B2024" points="161.442,146.945 162.706,146.207 161.967,147.469 162.706,148.734 161.442,147.996 
						160.176,148.734 160.917,147.469 160.176,146.207 					"/>
				</g>
				<g>
					<polygon fill="#1B2024" points="105.401,153.421 106.667,152.682 105.928,153.946 106.667,155.21 105.401,154.472 
						104.141,155.21 104.877,153.946 104.141,152.682 					"/>
					<polygon fill="#1B2024" points="111.994,153.421 113.257,152.682 112.523,153.946 113.257,155.21 111.994,154.472 
						110.734,155.21 111.47,153.946 110.734,152.682 					"/>
					<polygon fill="#1B2024" points="118.59,153.421 119.852,152.682 119.113,153.946 119.852,155.21 118.59,154.472 
						117.324,155.21 118.063,153.946 117.324,152.682 					"/>
					<polygon fill="#1B2024" points="125.18,153.421 126.444,152.682 125.708,153.946 126.444,155.21 125.18,154.472 
						123.917,155.21 124.655,153.946 123.917,152.682 					"/>
					<polygon fill="#1B2024" points="131.773,153.421 133.039,152.682 132.3,153.946 133.039,155.21 131.773,154.472 
						130.509,155.21 131.251,153.946 130.509,152.682 					"/>
					<polygon fill="#1B2024" points="138.366,153.421 139.631,152.682 138.893,153.946 139.631,155.21 138.366,154.472 
						137.1,155.21 137.842,153.946 137.1,152.682 					"/>
					<polygon fill="#1B2024" points="144.96,153.421 146.222,152.682 145.486,153.946 146.222,155.21 144.96,154.472 
						143.697,155.21 144.435,153.946 143.697,152.682 					"/>
					<polygon fill="#1B2024" points="151.553,153.421 152.819,152.682 152.076,153.946 152.819,155.21 151.553,154.472 
						150.287,155.21 151.026,153.946 150.287,152.682 					"/>
					<polygon fill="#1B2024" points="158.145,153.421 159.41,152.682 158.67,153.946 159.41,155.21 158.145,154.472 156.879,155.21 
						157.619,153.946 156.879,152.682 					"/>
					<polygon fill="#1B2024" points="164.738,153.421 166.001,152.682 165.263,153.946 166.001,155.21 164.738,154.472 
						163.472,155.21 164.21,153.946 163.472,152.682 					"/>
				</g>
				<g>
					<polygon fill="#1B2024" points="105.401,140.469 106.667,139.731 105.928,140.995 106.667,142.258 105.401,141.52 
						104.141,142.258 104.877,140.995 104.141,139.731 					"/>
					<polygon fill="#1B2024" points="111.994,140.469 113.257,139.731 112.523,140.995 113.257,142.258 111.994,141.52 
						110.734,142.258 111.47,140.995 110.734,139.731 					"/>
					<polygon fill="#1B2024" points="118.59,140.469 119.852,139.731 119.113,140.995 119.852,142.258 118.59,141.52 
						117.324,142.258 118.063,140.995 117.324,139.731 					"/>
					<polygon fill="#1B2024" points="125.18,140.469 126.444,139.731 125.708,140.995 126.444,142.258 125.18,141.52 
						123.917,142.258 124.655,140.995 123.917,139.731 					"/>
					<polygon fill="#1B2024" points="131.773,140.469 133.039,139.731 132.3,140.995 133.039,142.258 131.773,141.52 
						130.509,142.258 131.251,140.995 130.509,139.731 					"/>
					<polygon fill="#1B2024" points="138.366,140.469 139.631,139.731 138.893,140.995 139.631,142.258 138.366,141.52 
						137.1,142.258 137.842,140.995 137.1,139.731 					"/>
					<polygon fill="#1B2024" points="144.96,140.469 146.222,139.731 145.486,140.995 146.222,142.258 144.96,141.52 
						143.697,142.258 144.435,140.995 143.697,139.731 					"/>
					<polygon fill="#1B2024" points="151.553,140.469 152.819,139.731 152.076,140.995 152.819,142.258 151.553,141.52 
						150.287,142.258 151.026,140.995 150.287,139.731 					"/>
					<polygon fill="#1B2024" points="158.145,140.469 159.41,139.731 158.67,140.995 159.41,142.258 158.145,141.52 
						156.879,142.258 157.619,140.995 156.879,139.731 					"/>
					<polygon fill="#1B2024" points="164.738,140.469 166.001,139.731 165.263,140.995 166.001,142.258 164.738,141.52 
						163.472,142.258 164.21,140.995 163.472,139.731 					"/>
				</g>
				<g>
					<polygon fill="#1B2024" points="102.106,133.993 103.371,133.254 102.631,134.517 103.371,135.783 102.106,135.043 
						100.844,135.783 101.58,134.517 100.844,133.254 					"/>
					<polygon fill="#1B2024" points="108.699,133.993 109.962,133.254 109.226,134.517 109.962,135.783 108.699,135.043 
						107.435,135.783 108.173,134.517 107.435,133.254 					"/>
					<polygon fill="#1B2024" points="115.292,133.993 116.555,133.254 115.819,134.517 116.555,135.783 115.292,135.043 
						114.028,135.783 114.766,134.517 114.028,133.254 					"/>
					<polygon fill="#1B2024" points="121.884,133.993 123.146,133.254 122.41,134.517 123.146,135.783 121.884,135.043 
						120.621,135.783 121.361,134.517 120.621,133.254 					"/>
					<polygon fill="#1B2024" points="128.477,133.993 129.741,133.254 129.004,134.517 129.741,135.783 128.477,135.043 
						127.213,135.783 127.952,134.517 127.213,133.254 					"/>
					<polygon fill="#1B2024" points="135.072,133.993 136.335,133.254 135.594,134.517 136.335,135.783 135.072,135.043 
						133.807,135.783 134.544,134.517 133.807,133.254 					"/>
					<polygon fill="#1B2024" points="141.662,133.993 142.93,133.254 142.187,134.517 142.93,135.783 141.662,135.043 
						140.398,135.783 141.139,134.517 140.398,133.254 					"/>
					<polygon fill="#1B2024" points="148.256,133.993 149.52,133.254 148.78,134.517 149.52,135.783 148.256,135.043 
						146.991,135.783 147.731,134.517 146.991,133.254 					"/>
					<polygon fill="#1B2024" points="154.849,133.993 156.113,133.254 155.375,134.517 156.113,135.783 154.849,135.043 
						153.585,135.783 154.324,134.517 153.585,133.254 					"/>
					<polygon fill="#1B2024" points="161.442,133.993 162.706,133.254 161.967,134.517 162.706,135.783 161.442,135.043 
						160.176,135.783 160.917,134.517 160.176,133.254 					"/>
				</g>
				<g>
					<polygon fill="#1B2024" points="102.106,121.04 103.371,120.302 102.631,121.565 103.371,122.829 102.106,122.09 
						100.844,122.829 101.58,121.565 100.844,120.302 					"/>
					<polygon fill="#1B2024" points="108.699,121.04 109.962,120.302 109.226,121.565 109.962,122.829 108.699,122.09 
						107.435,122.829 108.173,121.565 107.435,120.302 					"/>
					<polygon fill="#1B2024" points="115.292,121.04 116.555,120.302 115.819,121.565 116.555,122.829 115.292,122.09 
						114.028,122.829 114.766,121.565 114.028,120.302 					"/>
					<polygon fill="#1B2024" points="121.884,121.04 123.146,120.302 122.41,121.565 123.146,122.829 121.884,122.09 
						120.621,122.829 121.361,121.565 120.621,120.302 					"/>
					<polygon fill="#1B2024" points="128.477,121.04 129.741,120.302 129.004,121.565 129.741,122.829 128.477,122.09 
						127.213,122.829 127.952,121.565 127.213,120.302 					"/>
					<polygon fill="#1B2024" points="135.072,121.04 136.335,120.302 135.594,121.565 136.335,122.829 135.072,122.09 
						133.807,122.829 134.544,121.565 133.807,120.302 					"/>
					<polygon fill="#1B2024" points="141.662,121.04 142.93,120.302 142.187,121.565 142.93,122.829 141.662,122.09 
						140.398,122.829 141.139,121.565 140.398,120.302 					"/>
					<polygon fill="#1B2024" points="148.256,121.04 149.52,120.302 148.78,121.565 149.52,122.829 148.256,122.09 146.991,122.829 
						147.731,121.565 146.991,120.302 					"/>
					<polygon fill="#1B2024" points="154.849,121.04 156.113,120.302 155.375,121.565 156.113,122.829 154.849,122.09 
						153.585,122.829 154.324,121.565 153.585,120.302 					"/>
					<polygon fill="#1B2024" points="161.442,121.04 162.706,120.302 161.967,121.565 162.706,122.829 161.442,122.09 
						160.176,122.829 160.917,121.565 160.176,120.302 					"/>
				</g>
				<g>
					<polygon fill="#1B2024" points="105.401,127.515 106.667,126.777 105.928,128.041 106.667,129.305 105.401,128.567 
						104.141,129.305 104.877,128.041 104.141,126.777 					"/>
					<polygon fill="#1B2024" points="111.994,127.515 113.257,126.777 112.523,128.041 113.257,129.305 111.994,128.567 
						110.734,129.305 111.47,128.041 110.734,126.777 					"/>
					<polygon fill="#1B2024" points="118.59,127.515 119.852,126.777 119.113,128.041 119.852,129.305 118.59,128.567 
						117.324,129.305 118.063,128.041 117.324,126.777 					"/>
					<polygon fill="#1B2024" points="125.18,127.515 126.444,126.777 125.708,128.041 126.444,129.305 125.18,128.567 
						123.917,129.305 124.655,128.041 123.917,126.777 					"/>
					<polygon fill="#1B2024" points="131.773,127.515 133.039,126.777 132.3,128.041 133.039,129.305 131.773,128.567 
						130.509,129.305 131.251,128.041 130.509,126.777 					"/>
					<polygon fill="#1B2024" points="138.366,127.515 139.631,126.777 138.893,128.041 139.631,129.305 138.366,128.567 
						137.1,129.305 137.842,128.041 137.1,126.777 					"/>
					<polygon fill="#1B2024" points="144.96,127.515 146.222,126.777 145.486,128.041 146.222,129.305 144.96,128.567 
						143.697,129.305 144.435,128.041 143.697,126.777 					"/>
					<polygon fill="#1B2024" points="151.553,127.515 152.819,126.777 152.076,128.041 152.819,129.305 151.553,128.567 
						150.287,129.305 151.026,128.041 150.287,126.777 					"/>
					<polygon fill="#1B2024" points="158.145,127.515 159.41,126.777 158.67,128.041 159.41,129.305 158.145,128.567 
						156.879,129.305 157.619,128.041 156.879,126.777 					"/>
					<polygon fill="#1B2024" points="164.738,127.515 166.001,126.777 165.263,128.041 166.001,129.305 164.738,128.567 
						163.472,129.305 164.21,128.041 163.472,126.777 					"/>
				</g>
				<g>
					<polygon fill="#1B2024" points="105.401,114.563 106.667,113.825 105.928,115.088 106.667,116.353 105.401,115.615 
						104.141,116.353 104.877,115.088 104.141,113.825 					"/>
					<polygon fill="#1B2024" points="111.994,114.563 113.257,113.825 112.523,115.088 113.257,116.353 111.994,115.615 
						110.734,116.353 111.47,115.088 110.734,113.825 					"/>
					<polygon fill="#1B2024" points="118.59,114.563 119.852,113.825 119.113,115.088 119.852,116.353 118.59,115.615 
						117.324,116.353 118.063,115.088 117.324,113.825 					"/>
					<polygon fill="#1B2024" points="125.18,114.563 126.444,113.825 125.708,115.088 126.444,116.353 125.18,115.615 
						123.917,116.353 124.655,115.088 123.917,113.825 					"/>
					<polygon fill="#1B2024" points="131.773,114.563 133.039,113.825 132.3,115.088 133.039,116.353 131.773,115.615 
						130.509,116.353 131.251,115.088 130.509,113.825 					"/>
					<polygon fill="#1B2024" points="138.366,114.563 139.631,113.825 138.893,115.088 139.631,116.353 138.366,115.615 
						137.1,116.353 137.842,115.088 137.1,113.825 					"/>
					<polygon fill="#1B2024" points="144.96,114.563 146.222,113.825 145.486,115.088 146.222,116.353 144.96,115.615 
						143.697,116.353 144.435,115.088 143.697,113.825 					"/>
					<polygon fill="#1B2024" points="151.553,114.563 152.819,113.825 152.076,115.088 152.819,116.353 151.553,115.615 
						150.287,116.353 151.026,115.088 150.287,113.825 					"/>
					<polygon fill="#1B2024" points="158.145,114.563 159.41,113.825 158.67,115.088 159.41,116.353 158.145,115.615 
						156.879,116.353 157.619,115.088 156.879,113.825 					"/>
					<polygon fill="#1B2024" points="164.738,114.563 166.001,113.825 165.263,115.088 166.001,116.353 164.738,115.615 
						163.472,116.353 164.21,115.088 163.472,113.825 					"/>
				</g>
			</g>
		</g>
	</g>
	<g>
		<g>
			<g>
				<path fill="#F2F2F2" d="M65.725,161.969c13.455,5.917,34.746,16.166,43.289,57.699l-9.883,5.479l-8.432-5.09L66.992,165.58
					L35.816,90.224c0,0-0.409,0.357-0.59,0.81c-0.179,0.455,23.611,83.751,23.611,83.751s-18.707-13.493-48.887-10.139l15.821-8.674
					c0,0,14.473-1.674,28.23,1.745"/>
				<path fill="#1B2024" d="M99.118,225.883l-8.923-5.385l-0.08-0.187l-23.706-54.478L36.553,93.669
					c3.095,11.437,15.808,56.107,22.899,80.941l0.505,1.766l-1.491-1.073c-0.185-0.135-18.88-13.31-48.444-10.023l-3.204,0.356
					l18.755-10.283l0.125-0.015c0.143-0.016,13.976-1.562,27.354,1.498C34.399,91.397,34.539,91.04,34.635,90.799
					c0.229-0.58,0.708-1.008,0.763-1.055l0.668-0.585l29.9,72.264l0.016-0.036c5.673,2.495,15.171,6.672,23.69,15.636
					c9.637,10.139,16.166,24.045,19.965,42.518l0.094,0.459L99.118,225.883z M91.203,219.618l7.941,4.792l9.148-5.071
					c-8.46-40.448-29.49-50.881-41.645-56.265l0.936,2.263L91.203,219.618z M19.427,163.479c20.19,0,34,7.238,38.334,9.857
					c-1.535-5.372-2.97-10.403-4.309-15.097c-12.702-3.064-26.072-1.792-27.487-1.647l-13.006,7.132
					C15.181,163.555,17.338,163.479,19.427,163.479z"/>
			</g>
			<g>
				<line fill="#F2F2F2" x1="55.379" y1="161.971" x2="49.398" y2="169.896"/>
				
					<rect x="51.751" y="160.971" transform="matrix(0.7975 0.6033 -0.6033 0.7975 110.716 1.9927)" fill="#1B2024" width="1.277" height="9.927"/>
			</g>
			<g>
				<line fill="#F2F2F2" x1="51.026" y1="147.417" x2="37.696" y2="166.04"/>
				
					<rect x="43.722" y="145.279" transform="matrix(0.8131 0.5821 -0.5821 0.8131 99.5234 3.4679)" fill="#1B2024" width="1.277" height="22.9"/>
			</g>
			<g>
				<line fill="#F2F2F2" x1="46.287" y1="130.695" x2="24.376" y2="164.365"/>
				
					<rect x="34.694" y="127.443" transform="matrix(0.8383 0.5451 -0.5451 0.8383 86.1354 4.5876)" fill="#1B2024" width="1.277" height="40.174"/>
			</g>
			<g>
				<line fill="#F2F2F2" x1="39.861" y1="108.234" x2="10.529" y2="164.562"/>
				
					<rect x="24.558" y="104.644" transform="matrix(0.887 0.4619 -0.4619 0.887 65.8446 3.7827)" fill="#1B2024" width="1.275" height="63.506"/>
			</g>
			<g>
				<path fill="#F2F2F2" d="M2.375,168.525c66.699,1.371,73.551,42.84,73.551,42.84"/>
				<path fill="#1B2024" d="M75.295,211.468c-0.014-0.102-1.821-10.354-11.654-20.631c-9.09-9.501-27.099-20.974-61.281-21.676
					l0.028-1.275c19.138,0.395,45.47,4.553,62.235,22.132c10.072,10.56,11.859,20.812,11.932,21.243L75.295,211.468z"/>
			</g>
		</g>
		<g>
			<polygon fill="#F2F2F2" points="98.901,225.295 35.858,89.926 35.587,90.372 89.575,219.613 			"/>
			<path fill="#1B2024" d="M98.901,225.933c-0.115,0-0.228-0.029-0.332-0.093l-9.324-5.683c-0.117-0.071-0.205-0.175-0.257-0.301
				L35,90.618c-0.081-0.188-0.064-0.402,0.042-0.577l0.271-0.446c0.121-0.202,0.348-0.312,0.58-0.306
				c0.236,0.013,0.445,0.154,0.543,0.367l63.042,135.37c0.119,0.255,0.059,0.559-0.152,0.745
				C99.207,225.878,99.055,225.933,98.901,225.933z M90.086,219.174l7.347,4.479L44.256,109.472L90.086,219.174z"/>
		</g>
	</g>
	<path fill="#1B2024" d="M99.132,227.907L0,170.121V56.029L99.136,0l98.021,56.036v114.571L99.132,227.907z M4.252,167.676
		l94.878,55.306l93.773-54.815V58.503L99.125,4.892L4.252,58.511V167.676z"/>
	<g>
		<line fill="#F2F2F2" x1="181.031" y1="167.39" x2="172.087" y2="166.903"/>
		
			<rect x="172.081" y="166.509" transform="matrix(0.9985 0.0544 -0.0544 0.9985 9.3555 -9.3585)" fill="#1B2024" width="8.957" height="1.275"/>
	</g>
</g>
</svg>
