<?xml version="1.0" encoding="utf-8"?>
<!-- Generator: Adobe Illustrator 16.0.0, SVG Export Plug-In . SVG Version: 6.00 Build 0)  -->
<!DOCTYPE svg PUBLIC "-//W3C//DTD SVG 1.1//EN" "http://www.w3.org/Graphics/SVG/1.1/DTD/svg11.dtd">
<svg version="1.1" id="Layer_1" xmlns="http://www.w3.org/2000/svg" xmlns:xlink="http://www.w3.org/1999/xlink" x="0px" y="0px"
	 width="384px" height="456.869px" viewBox="0 0 384 456.869" enable-background="new 0 0 384 456.869" xml:space="preserve">
<path fill="#FFD000" d="M129.394,50.055c0,3.59-2.912,6.502-6.504,6.502c-3.59,0-6.5-2.912-6.5-6.502c0-3.592,2.91-6.502,6.5-6.502
	C126.481,43.553,129.394,46.464,129.394,50.055"/>
<rect x="244.503" y="247.577" fill="#FFD000" width="1.002" height="196.852"/>
<path fill="#FFD000" d="M251.507,450.367c0,3.59-2.911,6.502-6.502,6.502c-3.592,0-6.502-2.912-6.502-6.502
	c0-3.591,2.91-6.503,6.502-6.503C248.596,443.864,251.507,446.776,251.507,450.367"/>
<path fill="#FFD000" d="M56.552,124.35L-0.001,93.273V31.077l0.26-0.142L56.552,0l56.553,31.077v62.196l-0.26,0.143L56.552,124.35z
	 M1.001,92.681l55.551,30.526l55.553-30.526V31.669L56.552,1.142L1.001,31.669V92.681z"/>
<path fill="#FFD000" d="M112.604,186.517L56.051,155.44V93.242l0.26-0.142l56.293-30.935l56.553,31.076v62.197l-0.26,0.142
	L112.604,186.517z M57.054,154.847l55.551,30.527l55.553-30.527V93.834l-55.553-30.526L57.054,93.834V154.847z"/>
<path fill="#ADD136" d="M343.718,89.32l-35.062-51.607h70.119L343.718,89.32z M316.218,41.717l27.5,40.479l27.498-40.479H316.218z"
	/>
<path fill="#ADD136" d="M347.221,153.434l-35.06-51.607h70.116L347.221,153.434z M319.723,105.831l27.498,40.479l27.5-40.479
	H319.723z"/>
<path fill="#ADD136" d="M348.939,213.652l-35.06-51.607h70.117L348.939,213.652z M321.439,166.049l27.5,40.479l27.5-40.479H321.439z
	"/>
<path fill="#ADD136" d="M346.938,273.319l-35.059-51.608h70.117L346.938,273.319z M319.438,225.715l27.5,40.479l27.5-40.479H319.438
	z"/>
<path fill="#DAD9D9" d="M45.876,264.812c0,5.527-4.48,10.01-10.01,10.01c-5.527,0-10.01-4.48-10.01-10.01
	c0-5.528,4.482-10.01,10.01-10.01C41.396,254.802,45.876,259.284,45.876,264.812"/>
<path fill="#DAD9D9" d="M76.966,264.812c0,5.527-4.482,10.01-10.01,10.01s-10.008-4.48-10.008-10.01
	c0-5.528,4.48-10.01,10.008-10.01S76.966,259.284,76.966,264.812"/>
<path fill="#DAD9D9" d="M108.056,264.812c0,5.527-4.482,10.01-10.01,10.01c-5.529,0-10.01-4.48-10.01-10.01
	c0-5.528,4.48-10.01,10.01-10.01C103.573,254.802,108.056,259.284,108.056,264.812"/>
<path fill="#DAD9D9" d="M139.146,264.812c0,5.527-4.48,10.01-10.01,10.01c-5.53,0-10.01-4.48-10.01-10.01
	c0-5.528,4.48-10.01,10.01-10.01C134.666,254.802,139.146,259.284,139.146,264.812"/>
<path fill="#DAD9D9" d="M45.876,294.506c0,5.528-4.48,10.011-10.01,10.011c-5.527,0-10.01-4.48-10.01-10.011
	c0-5.528,4.482-10.01,10.01-10.01C41.396,284.497,45.876,288.978,45.876,294.506"/>
<path fill="#DAD9D9" d="M76.966,294.506c0,5.528-4.482,10.011-10.01,10.011s-10.008-4.48-10.008-10.011
	c0-5.528,4.48-10.01,10.008-10.01S76.966,288.978,76.966,294.506"/>
<path fill="#DAD9D9" d="M108.056,294.506c0,5.528-4.482,10.011-10.01,10.011c-5.529,0-10.01-4.48-10.01-10.011
	c0-5.528,4.48-10.01,10.01-10.01C103.573,284.497,108.056,288.978,108.056,294.506"/>
<path fill="#DAD9D9" d="M139.146,294.506c0,5.528-4.48,10.011-10.01,10.011c-5.53,0-10.01-4.48-10.01-10.011
	c0-5.528,4.48-10.01,10.01-10.01C134.666,284.496,139.146,288.978,139.146,294.506"/>
<path fill="#DAD9D9" d="M280.607,370.244c0,7.003-5.676,12.68-12.678,12.68c-7.003,0-12.679-5.677-12.679-12.68
	s5.676-12.679,12.679-12.679C274.932,357.565,280.607,363.241,280.607,370.244"/>
<polygon fill="#ADD136" points="126.981,235.702 112.218,235.702 112.218,220.938 94.202,220.938 94.202,235.702 79.438,235.702 
	79.438,253.719 94.202,253.719 94.202,268.481 112.218,268.481 112.218,253.719 126.981,253.719 "/>
<path fill="#1B2024" d="M369.357,150.537c0,77.884-63.138,141.021-141.021,141.021c-77.885,0-141.021-63.139-141.021-141.021
	S150.454,9.516,228.338,9.516C306.223,9.516,369.357,72.653,369.357,150.537"/>
<g>
	<polygon fill="#F7F7F7" points="134.728,95.038 228.874,41.828 321.95,95.038 321.95,203.852 228.874,258.258 134.728,203.379 	"/>
	<polygon fill="#CCCCCC" points="135.985,114.707 160.413,99.746 160.315,136.198 175.958,126.868 175.958,113.793 196.718,102.115 
		196.718,83.612 211.279,75.381 211.35,108.291 229.062,97.586 229.204,84.325 243.721,92.259 243.721,71.31 256.729,78.746 
		256.782,99.918 268.991,106.307 269.161,76.331 282.023,83.617 282.091,126.02 297.298,135.35 297.298,105.667 320.622,119.424 
		320.689,203.666 229.134,150.044 135.94,203.171 	"/>
	<g>
		<g>
			<polygon fill="#F7F7F7" points="213.999,178.958 228.857,188.241 228.857,57.225 223.657,60.692 			"/>
			<path fill="#1B2024" d="M229.479,189.358l-16.127-10.075l0.03-0.375l9.685-118.563l6.412-4.276V189.358L229.479,189.358z
				 M214.646,178.632l13.592,8.492V58.381l-3.987,2.66L214.646,178.632z"/>
		</g>
		<g>
			<polygon fill="#F7F7F7" points="243.721,178.958 228.857,188.241 228.857,57.225 234.062,60.692 			"/>
			<path fill="#1B2024" d="M228.238,189.358V56.067l6.414,4.276l0.022,0.298l9.689,118.641L228.238,189.358z M229.479,58.381
				v128.742l13.595-8.492L233.468,61.04L229.479,58.381z"/>
		</g>
		<g>
			<polygon fill="#F7F7F7" points="228.872,63.175 228.716,53.427 223.657,60.692 			"/>
			<path fill="#1B2024" d="M228.872,63.793c-0.093,0-0.183-0.02-0.267-0.06l-5.215-2.483c-0.166-0.078-0.287-0.224-0.332-0.399
				c-0.048-0.177-0.015-0.363,0.09-0.514l5.06-7.266c0.151-0.22,0.435-0.315,0.688-0.239c0.258,0.079,0.436,0.314,0.438,0.583
				l0.156,9.749c0.004,0.214-0.104,0.415-0.285,0.53C229.104,63.761,228.986,63.793,228.872,63.793z M224.583,60.448l3.651,1.739
				l-0.106-6.831L224.583,60.448z"/>
		</g>
		<g>
			<polygon fill="#F7F7F7" points="228.872,63.175 228.782,53.441 234.062,60.531 			"/>
			<path fill="#1B2024" d="M228.872,63.793c-0.11,0-0.224-0.028-0.322-0.089c-0.182-0.11-0.295-0.309-0.297-0.522l-0.092-9.734
				c-0.002-0.268,0.17-0.507,0.422-0.592c0.256-0.085,0.535,0.001,0.694,0.217l5.279,7.089c0.108,0.146,0.146,0.333,0.104,0.511
				c-0.043,0.179-0.158,0.329-0.322,0.412l-5.188,2.645C229.062,63.771,228.968,63.793,228.872,63.793z M229.419,55.334l0.063,6.835
				l3.644-1.856L229.419,55.334z"/>
		</g>
	</g>
	<rect x="189.79" y="115.106" fill="#1B2024" width="78.769" height="16.718"/>
	<g>
		<g>
			<path fill="#1B2024" d="M160.663,90.961l8.246,13.254h0.055V90.961h4.068v19.759h-4.346l-8.217-13.229h-0.057v13.229h-4.066
				V90.961H160.663z"/>
			<path fill="#1B2024" d="M175.827,96.814c0.441-1.265,1.08-2.366,1.908-3.308c0.832-0.94,1.85-1.678,3.057-2.214
				c1.209-0.535,2.57-0.803,4.082-0.803c1.531,0,2.896,0.268,4.096,0.803c1.199,0.536,2.213,1.272,3.043,2.214
				c0.833,0.94,1.469,2.043,1.912,3.308c0.441,1.263,0.662,2.633,0.662,4.107c0,1.44-0.221,2.782-0.662,4.027
				c-0.442,1.245-1.079,2.33-1.912,3.251c-0.83,0.922-1.844,1.647-3.043,2.172c-1.199,0.526-2.564,0.789-4.096,0.789
				c-1.512,0-2.873-0.262-4.082-0.789c-1.207-0.524-2.225-1.25-3.057-2.172c-0.828-0.921-1.467-2.006-1.908-3.251
				c-0.443-1.245-0.664-2.587-0.664-4.027C175.163,99.447,175.384,98.077,175.827,96.814z"/>
			<path fill="#1B2024" d="M205.241,90.961c1.272,0,2.456,0.203,3.555,0.608c1.099,0.406,2.047,1.015,2.853,1.827
				c0.802,0.811,1.431,1.826,1.884,3.043c0.448,1.218,0.678,2.647,0.678,4.29c0,1.438-0.187,2.767-0.556,3.983
				c-0.368,1.219-0.928,2.271-1.674,3.155c-0.748,0.885-1.678,1.582-2.795,2.089c-1.115,0.508-2.433,0.763-3.942,0.763h-8.522
				V90.961H205.241z M204.938,107.066c0.627,0,1.235-0.102,1.826-0.304c0.592-0.203,1.116-0.54,1.579-1.01
				c0.46-0.472,0.83-1.085,1.104-1.841c0.277-0.756,0.416-1.678,0.416-2.767c0-0.997-0.096-1.896-0.291-2.697
				c-0.193-0.803-0.51-1.49-0.953-2.062c-0.443-0.572-1.027-1.011-1.758-1.314c-0.731-0.303-1.627-0.456-2.697-0.456h-3.1v12.452
				L204.938,107.066L204.938,107.066L204.938,107.066z"/>
			<path fill="#1B2024" d="M231.169,90.961v3.653h-10.433v4.232h9.574v3.376h-9.574v4.843h10.654v3.653h-14.998V90.961H231.169z"/>
			<path fill="#1B2024" d="M246.169,96.232c-0.262-0.416-0.584-0.779-0.969-1.093c-0.388-0.314-0.826-0.56-1.315-0.734
				c-0.488-0.175-1-0.263-1.535-0.263c-0.979,0-1.81,0.189-2.488,0.566c-0.684,0.379-1.239,0.887-1.663,1.522
				c-0.421,0.637-0.732,1.36-0.927,2.172c-0.193,0.812-0.289,1.651-0.289,2.518c0,0.831,0.097,1.639,0.289,2.421
				c0.192,0.784,0.506,1.49,0.927,2.118c0.424,0.626,0.979,1.129,1.663,1.507c0.681,0.38,1.511,0.568,2.488,0.568
				c1.325,0,2.364-0.406,3.11-1.218c0.748-0.812,1.205-1.882,1.373-3.21h4.205c-0.11,1.234-0.396,2.353-0.858,3.349
				c-0.459,0.996-1.068,1.844-1.824,2.546c-0.758,0.701-1.646,1.236-2.657,1.604c-1.017,0.369-2.13,0.553-3.349,0.553
				c-1.513,0-2.873-0.262-4.082-0.789c-1.207-0.524-2.228-1.25-3.058-2.172c-0.832-0.921-1.467-2.006-1.91-3.251
				c-0.44-1.245-0.663-2.587-0.663-4.027c0-1.475,0.223-2.846,0.663-4.107c0.443-1.265,1.078-2.366,1.91-3.308
				c0.83-0.94,1.851-1.678,3.058-2.214c1.209-0.535,2.569-0.803,4.082-0.803c1.088,0,2.116,0.157,3.084,0.471
				c0.974,0.313,1.838,0.771,2.603,1.369c0.769,0.601,1.397,1.342,1.896,2.229c0.5,0.886,0.812,1.898,0.938,3.045h-4.205
				C246.594,97.104,246.423,96.647,246.169,96.232z"/>
			<path fill="#1B2024" d="M273.479,90.961l8.246,13.254h0.053V90.961h4.066v19.759h-4.343l-8.219-13.229h-0.058v13.229h-4.063
				V90.961H273.479z"/>
			<path fill="#1B2024" d="M302.729,90.961v3.653h-9.549v4.565h8.271v3.376h-8.271v8.164h-4.349V90.961H302.729z"/>
		</g>
		<circle fill="#1B2024" cx="260.083" cy="100.826" r="6.865"/>
	</g>
	<g enable-background="new    ">
		<path fill="#F7F7F7" d="M195.859,128.19h-1.217l3.004-9.75h1.287l3.021,9.75h-1.338l-0.665-2.143h-3.43L195.859,128.19z
			 M196.822,125.074h2.845l-1.175-3.699l-0.273-0.99l-0.246,0.99L196.822,125.074z"/>
		<path fill="#F7F7F7" d="M204.359,124.044v4.146h-1.269v-9.75h2.604c0.85,0,1.475,0.087,1.877,0.261
			c0.4,0.174,0.711,0.437,0.932,0.788c0.219,0.351,0.329,0.729,0.329,1.136c0,0.376-0.073,0.755-0.22,1.136
			c-0.147,0.381-0.348,0.721-0.604,1.021c-0.256,0.299-0.628,0.582-1.112,0.851l2.819,4.56h-1.511l-2.582-4.146h-1.264V124.044z
			 M204.359,123.07h1.772c0.397-0.218,0.694-0.44,0.89-0.667c0.194-0.227,0.342-0.468,0.441-0.724c0.1-0.256,0.15-0.512,0.15-0.768
			c0-0.457-0.166-0.821-0.499-1.092c-0.332-0.271-0.935-0.406-1.81-0.406h-0.945V123.07L204.359,123.07z"/>
		<path fill="#F7F7F7" d="M216.711,128.184c-0.688,0.2-1.318,0.301-1.893,0.301c-0.812,0-1.535-0.201-2.17-0.603
			c-0.635-0.402-1.131-1.009-1.491-1.818c-0.36-0.811-0.54-1.727-0.54-2.749c0-1.009,0.176-1.916,0.527-2.72
			c0.352-0.805,0.848-1.414,1.487-1.828c0.642-0.415,1.345-0.622,2.111-0.622c0.577,0,1.229,0.136,1.96,0.405v1.156
			c-0.676-0.392-1.346-0.588-2.012-0.588c-0.502,0-0.961,0.172-1.379,0.516c-0.416,0.344-0.752,0.848-1.004,1.512
			c-0.254,0.665-0.381,1.391-0.381,2.179c0,1.056,0.24,2.018,0.723,2.886c0.481,0.867,1.242,1.301,2.281,1.301
			c0.133,0,0.303-0.01,0.508-0.031v-3.141h-0.974v-0.974h2.243v4.818H216.711z"/>
		<path fill="#F7F7F7" d="M224.136,127.116v1.074h-5.265v-9.75h5.17v0.98h-3.9v3.311h3.512v0.974h-3.512v3.411H224.136
			L224.136,127.116z"/>
		<path fill="#F7F7F7" d="M227.277,128.19h-1.17v-9.75h1.145l3.441,6.489l0.377,0.968h0.031l-0.031-0.968v-6.489h1.17v9.75h-1.17
			l-3.348-6.379l-0.472-1.024l0.024,1.012v6.391H227.277z"/>
		<path fill="#F7F7F7" d="M236.26,128.19v-8.676h-2.921v-1.074h7.11v1.074h-2.92v8.676H236.26z"/>
		<path fill="#F7F7F7" d="M241.838,128.19v-0.974h2.143v-7.803h-2.143v-0.974h5.555v0.974h-2.143v7.803h2.143v0.974H241.838z"/>
		<path fill="#F7F7F7" d="M250.438,128.19h-1.168v-9.75h1.145l3.441,6.489l0.377,0.968h0.031l-0.031-0.968v-6.489h1.168v9.75h-1.168
			l-3.35-6.379l-0.47-1.024l0.024,1.012V128.19L250.438,128.19z"/>
		<path fill="#F7F7F7" d="M257.625,128.19h-1.219l3.006-9.75h1.286l3.021,9.75h-1.338l-0.666-2.143h-3.428L257.625,128.19z
			 M258.588,125.074h2.844l-1.176-3.699l-0.271-0.99l-0.246,0.99L258.588,125.074z"/>
	</g>
	<g>
		<path fill="#F7F7F7" d="M299.889,197.197c0,0,5.832,0.086,8.476,4.717l3.655-2.074c0,0-4.29-5.375-10.142-5.375"/>
		<path fill="#1B2024" d="M308.132,202.758l-0.31-0.536c-2.438-4.276-7.889-4.404-7.942-4.405l0.017-1.238
			c0.244,0.003,5.783,0.137,8.683,4.503l2.469-1.401c-1.25-1.325-4.779-4.596-9.168-4.596v-1.238c6.08,0,10.441,5.379,10.623,5.607
			l0.451,0.566L308.132,202.758z"/>
	</g>
	<g>
		<g>
			<g>
				<path fill="#F7F7F7" d="M241.798,205.596c0,0,8.511,10.909,6.509,21.723l15.375,1.282c0,0,1.512-17.716,14.854-23.307"/>
				<path fill="#1B2024" d="M263.682,229.222c-0.019,0-0.035-0.002-0.052-0.005l-15.377-1.283c-0.176-0.015-0.334-0.101-0.438-0.241
					c-0.106-0.139-0.149-0.316-0.116-0.489c1.928-10.405-6.304-21.122-6.388-21.229l0.978-0.761
					c0.349,0.444,8.319,10.816,6.737,21.541l14.106,1.179c0.181-1.404,0.763-5.022,2.396-9.12c2.74-6.867,7.156-11.739,12.77-14.089
					l0.479,1.142c-12.836,5.375-14.463,22.613-14.479,22.788C264.271,228.978,263.997,229.222,263.682,229.222z"/>
			</g>
			<g>
				<path fill="#F7F7F7" d="M300.333,198.994c0,0-1.535,8.041-2.638,9.742l-5.961,3.498l-10.289-6.601"/>
				<path fill="#1B2024" d="M291.721,212.959l-10.606-6.806l0.67-1.042l9.967,6.394l5.498-3.226c0.851-1.519,2.069-7.26,2.479-9.403
					l1.218,0.232c-0.162,0.836-1.595,8.21-2.729,9.962l-0.078,0.123L291.721,212.959z"/>
			</g>
			<g>
				<path fill="#F7F7F7" d="M263.682,228.601l2.741-1.583c0,0-0.06-12.695,15.058-22.004l-3.629,0.585
					C277.852,205.599,265.682,210.523,263.682,228.601z"/>
				<path fill="#1B2024" d="M263.682,229.222c-0.119,0-0.236-0.035-0.341-0.104c-0.192-0.127-0.301-0.354-0.274-0.585
					c1.052-9.509,4.931-15.384,8-18.638c3.349-3.548,6.425-4.819,6.556-4.872c0.043-0.019,0.088-0.03,0.135-0.037l3.627-0.586
					c0.296-0.051,0.576,0.12,0.679,0.396c0.104,0.277-0.004,0.588-0.254,0.743c-14.649,9.022-14.765,21.35-14.765,21.475
					c0.002,0.223-0.116,0.428-0.31,0.539l-2.743,1.584C263.895,229.192,263.786,229.222,263.682,229.222z M278.023,206.199
					c-0.881,0.393-11.332,5.385-13.573,21.243l1.36-0.787c0.104-2.079,1.209-12.211,12.937-20.574L278.023,206.199z"/>
			</g>
			<g>
				<path fill="#F7F7F7" d="M291.734,212.233l-15.834-3.061c2.312-2.257,5.015-3.878,5.015-3.878L291.734,212.233z"/>
				<path fill="#1B2024" d="M291.734,212.853c-0.039,0-0.078-0.004-0.118-0.013l-15.832-3.06c-0.228-0.043-0.412-0.208-0.478-0.429
					c-0.065-0.223-0.005-0.461,0.159-0.621c2.339-2.283,5.019-3.899,5.13-3.966c0.202-0.121,0.454-0.117,0.653,0.009l10.817,6.937
					c0.25,0.16,0.353,0.477,0.24,0.751C292.216,212.701,291.982,212.853,291.734,212.853z M277.223,208.799l11.463,2.215
					l-7.772-4.984C280.266,206.443,278.736,207.464,277.223,208.799z"/>
			</g>
			<g>
				<g>
					<path fill="#F7F7F7" d="M228.075,197.666c0,0-6.453,3.797-7.056,7.401l-3.297-0.832c0,0,3.704-9.257,8.646-9.257"/>
					<path fill="#1B2024" d="M221.521,205.832l-4.636-1.169l0.263-0.658c0.158-0.394,3.924-9.646,9.221-9.646v1.238
						c-3.74,0-6.857,6.168-7.787,8.216l1.99,0.501c1.188-3.614,6.932-7.03,7.191-7.183l0.627,1.067
						c-1.729,1.017-6.307,4.25-6.76,6.969L221.521,205.832z"/>
				</g>
				<g>
					<path fill="#F7F7F7" d="M291.706,174.588c11.414,1.802,14.461,8.727,14.461,8.727v11.227
						c-7.953,7.47-16.633,13.372-47.41,12.791c-30.78-0.581-37.42-11.126-37.42-11.126v-11.012c0,0,2.401-5.805,13.216-8.708"/>
					<path fill="#1B2024" d="M262.895,207.991c-1.338,0-2.72-0.014-4.147-0.04c-30.763-0.582-37.654-10.974-37.935-11.416
						l-0.097-0.149V185.07l0.048-0.113c0.104-0.249,2.646-6.122,13.627-9.068l0.319,1.194c-9.619,2.583-12.377,7.484-12.756,8.247
						v10.676c0.916,1.199,8.711,10.178,36.813,10.706c30.209,0.571,38.847-5.025,46.778-12.438v-10.815
						c-0.442-0.857-3.799-6.658-13.938-8.256l0.193-1.224c11.61,1.833,14.799,8.793,14.931,9.087l0.053,0.12v11.625l-0.195,0.184
						C298.771,202.335,290.468,207.991,262.895,207.991z"/>
				</g>
				<g>
					<path fill="#F7F7F7" d="M221.337,185.193c0,0,4.483,11.522,42.188,11.522c35.897,0,42.642-13.401,42.642-13.401"/>
					<path fill="#1B2024" d="M263.525,197.335c-37.696,0-42.578-11.431-42.769-11.917l1.152-0.454
						c0.045,0.112,4.979,11.134,41.614,11.134c35.111,0,42.021-12.932,42.088-13.062l1.104,0.557
						C306.438,184.153,299.395,197.335,263.525,197.335z"/>
				</g>
				<g>
					<path fill="#F7F7F7" d="M234.048,183.393c0,0-1.209-31.778,28.63-32.734c28.129-0.9,30.331,31.379,30.331,31.379
						s-5.883,8.711-29.108,8.586C240.678,190.499,234.048,183.393,234.048,183.393z"/>
					<path fill="#1B2024" d="M264.391,191.244l-0.494-0.001c-23.224-0.125-30.021-7.131-30.299-7.429l-0.156-0.168l-0.012-0.23
						c-0.021-0.611-0.466-15.088,8.653-24.868c5.004-5.367,11.927-8.23,20.574-8.507c0.396-0.012,0.782-0.02,1.166-0.02
						c27.309,0,29.78,31.654,29.803,31.975l0.015,0.212l-0.117,0.176C293.277,182.746,287.271,191.244,264.391,191.244z
						 M234.663,183.121c1.144,1.015,8.539,6.772,29.241,6.884l0.484,0.001c11.579,0,18.612-2.268,22.473-4.171
						c3.488-1.719,5.076-3.454,5.511-3.982c-0.272-2.821-3.604-30.595-28.55-30.595c-0.368,0-0.747,0.007-1.127,0.02
						c-8.307,0.266-14.937,2.996-19.707,8.113C234.854,168.12,234.646,181.165,234.663,183.121z"/>
				</g>
			</g>
		</g>
		<g>
			<g>
				<g>
					<defs>
						<path id="SVGID_1_" d="M234.048,183.251c0,0-1.209-31.776,28.63-32.732c28.129-0.9,30.331,31.379,30.331,31.379
							s-5.883,8.712-29.108,8.587C240.678,190.358,234.048,183.251,234.048,183.251z"/>
					</defs>
					<clipPath id="SVGID_2_">
						<use xlink:href="#SVGID_1_"  overflow="visible"/>
					</clipPath>
					<g clip-path="url(#SVGID_2_)">
						<g>
							<polygon fill="#1B2024" points="231.764,194.643 232.988,193.927 232.271,195.152 232.988,196.379 231.764,195.664 
								230.538,196.379 231.251,195.152 230.538,193.927 							"/>
							<polygon fill="#1B2024" points="238.161,194.643 239.389,193.927 238.673,195.152 239.389,196.379 238.161,195.664 
								236.936,196.379 237.65,195.152 236.936,193.927 							"/>
							<polygon fill="#1B2024" points="244.561,194.643 245.786,193.927 245.07,195.152 245.786,196.379 244.561,195.664 
								243.333,196.379 244.05,195.152 243.333,193.927 							"/>
							<polygon fill="#1B2024" points="250.958,194.643 252.184,193.927 251.469,195.152 252.184,196.379 250.958,195.664 
								249.73,196.379 250.45,195.152 249.73,193.927 							"/>
							<polygon fill="#1B2024" points="257.355,194.643 258.583,193.927 257.868,195.152 258.583,196.379 257.355,195.664 
								256.13,196.379 256.848,195.152 256.13,193.927 							"/>
							<polygon fill="#1B2024" points="263.757,194.643 264.982,193.927 264.266,195.152 264.982,196.379 263.757,195.664 
								262.529,196.379 263.245,195.152 262.529,193.927 							"/>
							<polygon fill="#1B2024" points="270.152,194.643 271.384,193.927 270.663,195.152 271.384,196.379 270.152,195.664 
								268.928,196.379 269.646,195.152 268.928,193.927 							"/>
							<polygon fill="#1B2024" points="276.555,194.643 277.779,193.927 277.062,195.152 277.779,196.379 276.555,195.664 
								275.325,196.379 276.044,195.152 275.325,193.927 							"/>
							<polygon fill="#1B2024" points="282.952,194.643 284.18,193.927 283.462,195.152 284.18,196.379 282.952,195.664 
								281.727,196.379 282.441,195.152 281.727,193.927 							"/>
							<polygon fill="#1B2024" points="289.352,194.643 290.577,193.927 289.859,195.152 290.577,196.379 289.352,195.664 
								288.122,196.379 288.841,195.152 288.122,193.927 							"/>
						</g>
						<g>
							<polygon fill="#1B2024" points="231.764,182.071 232.988,181.354 232.271,182.581 232.988,183.808 231.764,183.092 
								230.538,183.808 231.251,182.581 230.538,181.354 							"/>
							<polygon fill="#1B2024" points="238.161,182.071 239.389,181.354 238.673,182.581 239.389,183.808 238.161,183.092 
								236.936,183.808 237.65,182.581 236.936,181.354 							"/>
							<polygon fill="#1B2024" points="244.561,182.071 245.786,181.354 245.07,182.581 245.786,183.808 244.561,183.092 
								243.333,183.808 244.05,182.581 243.333,181.354 							"/>
							<polygon fill="#1B2024" points="250.958,182.071 252.184,181.354 251.469,182.581 252.184,183.808 250.958,183.092 
								249.73,183.808 250.45,182.581 249.73,181.354 							"/>
							<polygon fill="#1B2024" points="257.355,182.071 258.583,181.354 257.868,182.581 258.583,183.808 257.355,183.092 
								256.13,183.808 256.848,182.581 256.13,181.354 							"/>
							<polygon fill="#1B2024" points="263.757,182.071 264.982,181.354 264.266,182.581 264.982,183.808 263.757,183.092 
								262.529,183.808 263.245,182.581 262.529,181.354 							"/>
							<polygon fill="#1B2024" points="270.152,182.071 271.384,181.354 270.663,182.581 271.384,183.808 270.152,183.092 
								268.928,183.808 269.646,182.581 268.928,181.354 							"/>
							<polygon fill="#1B2024" points="276.555,182.071 277.779,181.354 277.062,182.581 277.779,183.808 276.555,183.092 
								275.325,183.808 276.044,182.581 275.325,181.354 							"/>
							<polygon fill="#1B2024" points="282.952,182.071 284.18,181.354 283.462,182.581 284.18,183.808 282.952,183.092 
								281.727,183.808 282.441,182.581 281.727,181.354 							"/>
							<polygon fill="#1B2024" points="289.352,182.071 290.577,181.354 289.859,182.581 290.577,183.808 289.352,183.092 
								288.122,183.808 288.841,182.581 288.122,181.354 							"/>
						</g>
						<g>
							<polygon fill="#1B2024" points="234.96,188.357 236.188,187.64 235.473,188.867 236.188,190.094 234.96,189.377 
								233.736,190.094 234.452,188.867 233.736,187.64 							"/>
							<polygon fill="#1B2024" points="241.357,188.357 242.585,187.64 241.872,188.867 242.585,190.094 241.357,189.377 
								240.137,190.094 240.852,188.867 240.137,187.64 							"/>
							<polygon fill="#1B2024" points="247.762,188.357 248.984,187.64 248.27,188.867 248.984,190.094 247.762,189.377 
								246.531,190.094 247.249,188.867 246.531,187.64 							"/>
							<polygon fill="#1B2024" points="254.156,188.357 255.384,187.64 254.669,188.867 255.384,190.094 254.156,189.377 
								252.932,190.094 253.646,188.867 252.932,187.64 							"/>
							<polygon fill="#1B2024" points="260.557,188.357 261.784,187.64 261.066,188.867 261.784,190.094 260.557,189.377 
								259.329,190.094 260.05,188.867 259.329,187.64 							"/>
							<polygon fill="#1B2024" points="266.954,188.357 268.184,187.64 267.466,188.867 268.184,190.094 266.954,189.377 
								265.727,190.094 266.445,188.867 265.727,187.64 							"/>
							<polygon fill="#1B2024" points="273.354,188.357 274.579,187.64 273.863,188.867 274.579,190.094 273.354,189.377 
								272.128,190.094 272.846,188.867 272.128,187.64 							"/>
							<polygon fill="#1B2024" points="279.753,188.357 280.98,187.64 280.262,188.867 280.98,190.094 279.753,189.377 
								278.523,190.094 279.241,188.867 278.523,187.64 							"/>
							<polygon fill="#1B2024" points="286.15,188.357 287.378,187.64 286.661,188.867 287.378,190.094 286.15,189.377 
								284.923,190.094 285.641,188.867 284.923,187.64 							"/>
							<polygon fill="#1B2024" points="292.55,188.357 293.775,187.64 293.061,188.867 293.775,190.094 292.55,189.377 
								291.32,190.094 292.038,188.867 291.32,187.64 							"/>
						</g>
						<g>
							<polygon fill="#1B2024" points="234.96,175.786 236.188,175.07 235.473,176.296 236.188,177.522 234.96,176.806 
								233.736,177.522 234.452,176.296 233.736,175.07 							"/>
							<polygon fill="#1B2024" points="241.357,175.786 242.585,175.07 241.872,176.296 242.585,177.522 241.357,176.806 
								240.137,177.522 240.852,176.296 240.137,175.07 							"/>
							<polygon fill="#1B2024" points="247.762,175.786 248.984,175.07 248.27,176.296 248.984,177.522 247.762,176.806 
								246.531,177.522 247.249,176.296 246.531,175.07 							"/>
							<polygon fill="#1B2024" points="254.156,175.786 255.384,175.07 254.669,176.296 255.384,177.522 254.156,176.806 
								252.932,177.522 253.646,176.296 252.932,175.07 							"/>
							<polygon fill="#1B2024" points="260.557,175.786 261.784,175.07 261.066,176.296 261.784,177.522 260.557,176.806 
								259.329,177.522 260.05,176.296 259.329,175.07 							"/>
							<polygon fill="#1B2024" points="266.954,175.786 268.184,175.07 267.466,176.296 268.184,177.522 266.954,176.806 
								265.727,177.522 266.445,176.296 265.727,175.07 							"/>
							<polygon fill="#1B2024" points="273.354,175.786 274.579,175.07 273.863,176.296 274.579,177.522 273.354,176.806 
								272.128,177.522 272.846,176.296 272.128,175.07 							"/>
							<polygon fill="#1B2024" points="279.753,175.786 280.98,175.07 280.262,176.296 280.98,177.522 279.753,176.806 
								278.523,177.522 279.241,176.296 278.523,175.07 							"/>
							<polygon fill="#1B2024" points="286.15,175.786 287.378,175.07 286.661,176.296 287.378,177.522 286.15,176.806 
								284.923,177.522 285.641,176.296 284.923,175.07 							"/>
							<polygon fill="#1B2024" points="292.55,175.786 293.775,175.07 293.061,176.296 293.775,177.522 292.55,176.806 
								291.32,177.522 292.038,176.296 291.32,175.07 							"/>
						</g>
						<g>
							<polygon fill="#1B2024" points="231.764,169.5 232.988,168.784 232.271,170.01 232.988,171.237 231.764,170.521 
								230.538,171.237 231.251,170.01 230.538,168.784 							"/>
							<polygon fill="#1B2024" points="238.161,169.5 239.389,168.784 238.673,170.01 239.389,171.237 238.161,170.521 
								236.936,171.237 237.65,170.01 236.936,168.784 							"/>
							<polygon fill="#1B2024" points="244.561,169.5 245.786,168.784 245.07,170.01 245.786,171.237 244.561,170.521 
								243.333,171.237 244.05,170.01 243.333,168.784 							"/>
							<polygon fill="#1B2024" points="250.958,169.5 252.184,168.784 251.469,170.01 252.184,171.237 250.958,170.521 
								249.73,171.237 250.45,170.01 249.73,168.784 							"/>
							<polygon fill="#1B2024" points="257.355,169.5 258.583,168.784 257.868,170.01 258.583,171.237 257.355,170.521 
								256.13,171.237 256.848,170.01 256.13,168.784 							"/>
							<polygon fill="#1B2024" points="263.757,169.5 264.982,168.784 264.266,170.01 264.982,171.237 263.757,170.521 
								262.529,171.237 263.245,170.01 262.529,168.784 							"/>
							<polygon fill="#1B2024" points="270.152,169.5 271.384,168.784 270.663,170.01 271.384,171.237 270.152,170.521 
								268.928,171.237 269.646,170.01 268.928,168.784 							"/>
							<polygon fill="#1B2024" points="276.555,169.5 277.779,168.784 277.062,170.01 277.779,171.237 276.555,170.521 
								275.325,171.237 276.044,170.01 275.325,168.784 							"/>
							<polygon fill="#1B2024" points="282.952,169.5 284.18,168.784 283.462,170.01 284.18,171.237 282.952,170.521 
								281.727,171.237 282.441,170.01 281.727,168.784 							"/>
							<polygon fill="#1B2024" points="289.352,169.5 290.577,168.784 289.859,170.01 290.577,171.237 289.352,170.521 
								288.122,171.237 288.841,170.01 288.122,168.784 							"/>
						</g>
						<g>
							<polygon fill="#1B2024" points="231.764,156.929 232.988,156.213 232.271,157.438 232.988,158.666 231.764,157.949 
								230.538,158.666 231.251,157.438 230.538,156.213 							"/>
							<polygon fill="#1B2024" points="238.161,156.929 239.389,156.213 238.673,157.438 239.389,158.666 238.161,157.949 
								236.936,158.666 237.65,157.438 236.936,156.213 							"/>
							<polygon fill="#1B2024" points="244.561,156.929 245.786,156.213 245.07,157.438 245.786,158.666 244.561,157.949 
								243.333,158.666 244.05,157.438 243.333,156.213 							"/>
							<polygon fill="#1B2024" points="250.958,156.929 252.184,156.213 251.469,157.438 252.184,158.666 250.958,157.949 
								249.73,158.666 250.45,157.438 249.73,156.213 							"/>
							<polygon fill="#1B2024" points="257.355,156.929 258.583,156.213 257.868,157.438 258.583,158.666 257.355,157.949 
								256.13,158.666 256.848,157.438 256.13,156.213 							"/>
							<polygon fill="#1B2024" points="263.757,156.929 264.982,156.213 264.266,157.438 264.982,158.666 263.757,157.949 
								262.529,158.666 263.245,157.438 262.529,156.213 							"/>
							<polygon fill="#1B2024" points="270.152,156.929 271.384,156.213 270.663,157.438 271.384,158.666 270.152,157.949 
								268.928,158.666 269.646,157.438 268.928,156.213 							"/>
							<polygon fill="#1B2024" points="276.555,156.929 277.779,156.213 277.062,157.438 277.779,158.666 276.555,157.949 
								275.325,158.666 276.044,157.438 275.325,156.213 							"/>
							<polygon fill="#1B2024" points="282.952,156.929 284.18,156.213 283.462,157.438 284.18,158.666 282.952,157.949 
								281.727,158.666 282.441,157.438 281.727,156.213 							"/>
							<polygon fill="#1B2024" points="289.352,156.929 290.577,156.213 289.859,157.438 290.577,158.666 289.352,157.949 
								288.122,158.666 288.841,157.438 288.122,156.213 							"/>
						</g>
						<g>
							<polygon fill="#1B2024" points="234.96,163.215 236.188,162.498 235.473,163.724 236.188,164.952 234.96,164.235 
								233.736,164.952 234.452,163.724 233.736,162.498 							"/>
							<polygon fill="#1B2024" points="241.357,163.215 242.585,162.498 241.872,163.724 242.585,164.952 241.357,164.235 
								240.137,164.952 240.852,163.724 240.137,162.498 							"/>
							<polygon fill="#1B2024" points="247.762,163.215 248.984,162.498 248.27,163.724 248.984,164.952 247.762,164.235 
								246.531,164.952 247.249,163.724 246.531,162.498 							"/>
							<polygon fill="#1B2024" points="254.156,163.215 255.384,162.498 254.669,163.724 255.384,164.952 254.156,164.235 
								252.932,164.952 253.646,163.724 252.932,162.498 							"/>
							<polygon fill="#1B2024" points="260.557,163.215 261.784,162.498 261.066,163.724 261.784,164.952 260.557,164.235 
								259.329,164.952 260.05,163.724 259.329,162.498 							"/>
							<polygon fill="#1B2024" points="266.954,163.215 268.184,162.498 267.466,163.724 268.184,164.952 266.954,164.235 
								265.727,164.952 266.445,163.724 265.727,162.498 							"/>
							<polygon fill="#1B2024" points="273.354,163.215 274.579,162.498 273.863,163.724 274.579,164.952 273.354,164.235 
								272.128,164.952 272.846,163.724 272.128,162.498 							"/>
							<polygon fill="#1B2024" points="279.753,163.215 280.98,162.498 280.262,163.724 280.98,164.952 279.753,164.235 
								278.523,164.952 279.241,163.724 278.523,162.498 							"/>
							<polygon fill="#1B2024" points="286.15,163.215 287.378,162.498 286.661,163.724 287.378,164.952 286.15,164.235 
								284.923,164.952 285.641,163.724 284.923,162.498 							"/>
							<polygon fill="#1B2024" points="292.55,163.215 293.775,162.498 293.061,163.724 293.775,164.952 292.55,164.235 
								291.32,164.952 292.038,163.724 291.32,162.498 							"/>
						</g>
						<g>
							<polygon fill="#1B2024" points="234.96,150.644 236.188,149.927 235.473,151.153 236.188,152.381 234.96,151.665 
								233.736,152.381 234.452,151.153 233.736,149.927 							"/>
							<polygon fill="#1B2024" points="241.357,150.644 242.585,149.927 241.872,151.153 242.585,152.381 241.357,151.665 
								240.137,152.381 240.852,151.153 240.137,149.927 							"/>
							<polygon fill="#1B2024" points="247.762,150.644 248.984,149.927 248.27,151.153 248.984,152.381 247.762,151.665 
								246.531,152.381 247.249,151.153 246.531,149.927 							"/>
							<polygon fill="#1B2024" points="254.156,150.644 255.384,149.927 254.669,151.153 255.384,152.381 254.156,151.665 
								252.932,152.381 253.646,151.153 252.932,149.927 							"/>
							<polygon fill="#1B2024" points="260.557,150.644 261.784,149.927 261.066,151.153 261.784,152.381 260.557,151.665 
								259.329,152.381 260.05,151.153 259.329,149.927 							"/>
							<polygon fill="#1B2024" points="266.954,150.644 268.184,149.927 267.466,151.153 268.184,152.381 266.954,151.665 
								265.727,152.381 266.445,151.153 265.727,149.927 							"/>
							<polygon fill="#1B2024" points="273.354,150.644 274.579,149.927 273.863,151.153 274.579,152.381 273.354,151.665 
								272.128,152.381 272.846,151.153 272.128,149.927 							"/>
							<polygon fill="#1B2024" points="279.753,150.644 280.98,149.927 280.262,151.153 280.98,152.381 279.753,151.665 
								278.523,152.381 279.241,151.153 278.523,149.927 							"/>
							<polygon fill="#1B2024" points="286.15,150.644 287.378,149.927 286.661,151.153 287.378,152.381 286.15,151.665 
								284.923,152.381 285.641,151.153 284.923,149.927 							"/>
							<polygon fill="#1B2024" points="292.55,150.644 293.775,149.927 293.061,151.153 293.775,152.381 292.55,151.665 
								291.32,152.381 292.038,151.153 291.32,149.927 							"/>
						</g>
					</g>
				</g>
			</g>
		</g>
	</g>
	<g>
		<g>
			<g>
				<path fill="#F7F7F7" d="M196.452,196.654c13.06,5.742,33.723,15.689,42.014,56l-9.592,5.316l-8.185-4.938l-23.008-52.874
					l-30.259-73.136c0,0-0.396,0.346-0.572,0.786c-0.174,0.44,22.916,81.283,22.916,81.283s-18.156-13.096-47.447-9.84l15.355-8.417
					c0,0,14.047-1.625,27.398,1.693"/>
				<path fill="#1B2024" d="M228.861,258.685l-8.659-5.227l-0.078-0.182l-23.008-52.874l-28.977-70.04
					c3.004,11.1,15.342,54.455,22.225,78.557l0.49,1.715l-1.447-1.043c-0.18-0.13-18.324-12.917-47.018-9.728l-3.109,0.345
					l18.203-9.979l0.121-0.015c0.139-0.017,13.564-1.517,26.549,1.452c-18.104-63.511-17.969-63.857-17.875-64.092
					c0.223-0.562,0.688-0.979,0.74-1.023l0.648-0.568l29.02,70.136l0.018-0.036c5.506,2.422,14.727,6.477,22.99,15.177
					c9.354,9.84,15.689,23.338,19.377,41.266l0.094,0.445L228.861,258.685z M221.182,252.604l7.707,4.649l8.879-4.922
					c-8.211-39.257-28.621-49.382-40.418-54.607l0.907,2.195L221.182,252.604z M151.519,198.118c19.596,0,32.998,7.026,37.205,9.568
					c-1.49-5.214-2.883-10.097-4.182-14.652c-12.328-2.973-25.305-1.74-26.678-1.598l-12.623,6.921
					C147.397,198.193,149.491,198.118,151.519,198.118z"/>
			</g>
			<g>
				<line fill="none" x1="186.411" y1="196.656" x2="180.606" y2="204.347"/>
				
					<rect x="182.878" y="195.674" transform="matrix(0.7979 0.6028 -0.6028 0.7979 157.954 -70.0924)" fill="#1B2024" width="1.239" height="9.635"/>
			</g>
			<g>
				<line fill="none" x1="182.187" y1="182.531" x2="169.249" y2="200.604"/>
				
					<rect x="175.084" y="180.454" transform="matrix(0.8129 0.5824 -0.5824 0.8129 144.4274 -66.4869)" fill="#1B2024" width="1.241" height="22.223"/>
			</g>
			<g>
				<line fill="none" x1="177.587" y1="166.3" x2="156.321" y2="198.978"/>
				
					<rect x="166.335" y="163.137" transform="matrix(0.8382 0.5454 -0.5454 0.8382 126.6223 -61.5023)" fill="#1B2024" width="1.239" height="38.991"/>
			</g>
			<g>
				<line fill="none" x1="171.351" y1="144.501" x2="142.882" y2="199.169"/>
				
					<rect x="156.501" y="141.025" transform="matrix(0.8867 0.4623 -0.4623 0.8867 97.2398 -53.1708)" fill="#1B2024" width="1.238" height="61.635"/>
			</g>
			<g>
				<path fill="#F7F7F7" d="M134.968,203.016c64.734,1.331,71.386,41.578,71.386,41.578"/>
				<path fill="#1B2024" d="M205.741,244.694c-0.015-0.098-1.769-10.049-11.312-20.022c-8.823-9.221-26.302-20.354-59.478-21.036
					l0.027-1.239c18.574,0.383,44.131,4.419,60.402,21.48c9.773,10.248,11.512,20.198,11.58,20.617L205.741,244.694z"/>
			</g>
		</g>
		<g>
			<polygon fill="#F7F7F7" points="228.65,258.115 167.466,126.732 167.202,127.165 219.602,252.599 			"/>
			<path fill="#1B2024" d="M228.65,258.733c-0.11,0-0.221-0.027-0.321-0.09l-9.05-5.517c-0.112-0.067-0.198-0.17-0.25-0.292
				l-52.397-125.433c-0.078-0.183-0.062-0.391,0.041-0.56l0.264-0.434c0.117-0.195,0.338-0.302,0.562-0.296
				c0.229,0.012,0.432,0.149,0.527,0.356l61.186,131.383c0.115,0.248,0.058,0.543-0.147,0.725
				C228.947,258.681,228.803,258.733,228.65,258.733z M220.098,252.174l7.131,4.349l-51.61-110.818L220.098,252.174z"/>
		</g>
	</g>
	<path fill="#1B2024" d="M228.876,260.649l-96.213-56.084V93.833l96.217-54.379l95.136,54.386v111.197L228.876,260.649z
		 M136.79,202.193l92.084,53.676l91.013-53.201V96.235l-91.019-52.033l-92.078,52.04V202.193L136.79,202.193z"/>
	<g>
		<line fill="none" x1="308.361" y1="201.915" x2="299.684" y2="201.442"/>
		
			<rect x="299.676" y="201.059" transform="matrix(0.9985 0.0544 -0.0544 0.9985 11.416 -16.2328)" fill="#1B2024" width="8.693" height="1.239"/>
	</g>
</g>
</svg>
