<?xml version="1.0" encoding="utf-8"?>
<!-- Generator: Adobe Illustrator 16.0.0, SVG Export Plug-In . SVG Version: 6.00 Build 0)  -->
<!DOCTYPE svg PUBLIC "-//W3C//DTD SVG 1.1//EN" "http://www.w3.org/Graphics/SVG/1.1/DTD/svg11.dtd">
<svg version="1.1" id="Layer_1" xmlns="http://www.w3.org/2000/svg" xmlns:xlink="http://www.w3.org/1999/xlink" x="0px" y="0px"
	 width="383.998px" height="273.319px" viewBox="-0.001 0 383.998 273.319" enable-background="new -0.001 0 383.998 273.319"
	 xml:space="preserve">
<path fill="#FFD000" d="M129.394,50.055c0,3.59-2.912,6.502-6.504,6.502c-3.59,0-6.5-2.912-6.5-6.502c0-3.592,2.91-6.502,6.5-6.502
	C126.481,43.553,129.394,46.464,129.394,50.055"/>
<path fill="#FFD000" d="M56.552,124.35L-0.001,93.273V31.077l0.26-0.142L56.552,0l56.553,31.077v62.196l-0.26,0.143L56.552,124.35z
	 M1.001,92.681l55.551,30.526l55.553-30.526V31.669L56.552,1.142L1.001,31.669V92.681z"/>
<path fill="#FFD000" d="M112.604,186.517L56.051,155.44V93.242l0.26-0.142l56.293-30.935l56.553,31.076v62.197l-0.26,0.142
	L112.604,186.517z M57.054,154.847l55.551,30.527l55.553-30.527V93.834l-55.553-30.526L57.054,93.834V154.847z"/>
<path fill="#ADD136" d="M343.718,89.32l-35.062-51.607h70.119L343.718,89.32z M316.218,41.717l27.5,40.479l27.498-40.479H316.218z"
	/>
<path fill="#ADD136" d="M347.221,153.434l-35.06-51.607h70.116L347.221,153.434z M319.723,105.831l27.498,40.479l27.5-40.479
	H319.723z"/>
<path fill="#ADD136" d="M348.939,213.652l-35.06-51.607h70.117L348.939,213.652z M321.439,166.049l27.5,40.479l27.5-40.479H321.439z
	"/>
<path fill="#ADD136" d="M346.938,273.319l-35.059-51.608h70.117L346.938,273.319z M319.438,225.715l27.5,40.479l27.5-40.479H319.438
	z"/>
</svg>
